<svg xmlns="http://www.w3.org/2000/svg" xmlns:svg="http://www.w3.org/2000/svg" id="svg2" width="70" height="62" version="1.0"><metadata id="metadata15"/><g id="g4373" transform="translate(0,-47)"><rect id="rect4357" width="71" height="62.428" x="-.5" y="47.072" fill="#1a1866"/><path id="rect2161" fill="#fff" d="m 27.783901,54.322034 5.5,0 0,46.999996 -5.5,0 0,-46.999996 z m 23.999997,0 0,46.999996 10,0 2,-6 -6.5,0 0,-15.499996 6.5,0 0,-6 -6.5,0 0,-13.5 6.5,0 -2,-6 -10,0 z m -34.499997,0 7.5,0 c -3,3 -10,11.25 -10,23 0,11.749996 7,20.999996 10,23.999996 l -7.5,0 c -3,-3 -8.4999998,-12.25 -8.4999998,-23.999996 0,-11.75 5.4999998,-20 8.4999998,-23 z m 24,0 -7.5,0 c 3,3 9.999997,11.25 9.999997,23 0,11.749996 -6.999997,20.999996 -9.999997,23.999996 l 7.5,0 c 2.999997,-3 8.499997,-12.25 8.499997,-23.999996 0,-11.75 -5.5,-20 -8.499997,-23 z"/></g></svg>