<svg xmlns="http://www.w3.org/2000/svg" xmlns:svg="http://www.w3.org/2000/svg" id="svg2440" width="384" height="160" version="1.0"><metadata id="metadata2445"/><path id="path2451" fill="#222" fill-opacity="1" d="M 0,112 L 0,64 L 48,64 L 96,64 L 96,32 L 96,0 L 112,0 L 128,0 L 128,64 L 128,128 L 144,128 L 160,128 L 160,96 L 160,64 L 176,64 L 192,64 L 192,96 L 192,128 L 208,128 L 224,128 L 224,96 L 224,64 L 304,64 L 384,64 L 384,112 L 384,160 L 368,160 L 352,160 L 352,128 L 352,96 L 336,96 L 320,96 L 320,128 L 320,160 L 304,160 L 288,160 L 288,128 L 288,96 L 272,96 L 256,96 L 256,128 L 256,160 L 128,160 L 0,160 L 0,112 z M 96,112 L 96,96 L 64,96 L 32,96 L 32,112 L 32,128 L 64,128 L 96,128 L 96,112 z"/></svg>