<svg xmlns="http://www.w3.org/2000/svg" xmlns:svg="http://www.w3.org/2000/svg" id="svg2" width="100%" height="100%" version="1.1" viewBox="0 0 203 205" xml:space="preserve"><metadata id="metadata4"/><defs id="defs6"><clipPath id="clipPath18" clipPathUnits="userSpaceOnUse"><path id="path9" d="m 0,0 5010,0 0,1640 -5010,0 V 0 z"/></clipPath></defs><g id="g11" transform="matrix(1.25,0,0,-1.25,0,204.6875)"><g id="g13" transform="scale(0.1,0.1)"><path id="path33" fill="#100f0d" fill-rule="nonzero" d="m 1070,709 c -27.3,-5.94 -54.3,11.4 -60.2,38.7 -5.92,27.3 11.4,54.3 38.7,60.2 27.3,5.93 54.3,-11.4 60.2,-38.7 5.94,-27.3 -11.4,-54.3 -38.7,-60.2 z M 953,906 c -27.3,-5.93 -54.3,11.4 -60.2,38.7 -5.93,27.3 11.4,54.3 38.7,60.2 27.3,5.93 54.3,-11.4 60.2,-38.7 C 997.64,938.9 980.3,911.9 953,906 z M 916,538 c -27.3,-5.94 -54.3,11.4 -60.2,38.7 -5.92,27.3 11.4,54.3 38.7,60.2 27.3,5.94 54.3,-11.4 60.2,-38.7 C 960.63,570.9 943.3,543.9 916,538 z M 730,855 c -27.3,-5.92 -54.3,11.4 -60.2,38.7 -5.93,27.3 11.4,54.3 38.7,60.2 27.3,5.93 54.3,-11.4 60.2,-38.7 C 774.64,887.9 757.3,860.9 730,855 z M 706,630 c -27.3,-5.93 -54.3,11.4 -60.2,38.7 -5.93,27.3 11.4,54.3 38.7,60.2 27.3,5.94 54.3,-11.4 60.2,-38.7 5.92,-27.3 -11.4,-54.3 -38.7,-60.2 z m 902,598 c -1.1,1.89 -3.3,2.65 -5.31,2.1 -25.6,-3 -65.1,4.77 -200,0.21 -217,-7.34 -334,-55.5 -398,-110 -2.36,83.8 -46.4,203 -187,368 -87.8,103 -120,126 -135,147 -0.961,1.85 -3,2.93 -5.11,2.47 -2.15,-0.47 -3.55,-2.32 -3.63,-4.39 -5.07,-25.3 -24.7,-60.4 -62,-190 -56,-220 -46,-340 -13,-420 -81,20 -208,20 -408,-64 -125,-52 -158,-75 -182,-83 -2.06,-1 -3.72,-2 -3.93,-4 -0.218,-2 1.11,-4 3.05,-5 22.5,-13 49.8,-42 162,-118 179,-121 303,-151 386,-144 -47,-69 -81,-192 -64,-408 11,-134 23,-173 23,-199 -0.305,-2.06 0.684,-4.12 2.67,-4.98 2,-0.879 4.23,-0.211 5.52,1.41 19,17.5 55.5,34.4 162,117 171,133 238,241 257,323 51.2,-66.4 157,-137 368,-187 131,-31.4 172,-31.6 196,-39.6 1.87,-0.929 4.14,-0.609 5.59,1.01 1.45,1.63 1.49,3.96 0.35,5.68 -10.8,23.4 -15.6,63.4 -61.6,190 -74,204 -156,301 -228,344 78.9,28.1 179,107 292,292 70.4,115 83.1,153 98.3,174 1.46,1.49 1.86,3.75 0.77,5.62"/></g></g></svg>