<svg xmlns="http://www.w3.org/2000/svg" xmlns:xlink="http://www.w3.org/1999/xlink" width="388" height="241.781" enable-background="new 0 0 388 241.781" overflow="visible" viewBox="0 0 388 241.781" xml:space="preserve"><metadata><sfw><slices/><sliceSourceBounds width="388" height="241.781" x="112" y="325.25" bottomLeftOrigin="true"/></sfw><variableSets xmlns="http://ns.adobe.com/Variables/1.0/"><variableSet locked="none" varSetName="binding1"><variables/><v:sampleDataSets xmlns="http://ns.adobe.com/GenericCustomNamespace/1.0/" xmlns:v="http://ns.adobe.com/Variables/1.0/"/></variableSet></variableSets><svgXAP><?xpacket begin='' id='W5M0MpCehiHzreSzNTczkc9d' bytes='824'?><?adobe-xap-filters esc="CR"?><?xpacket end='r'?></svgXAP></metadata><switch><g><g id="Layer_1" stroke="#000"><path stroke="none" d="M174,227.781c-14.25,5.5-26.5,7.25-39.75,8.25c-12.25,0.5-23.25-1-34-2.75 c-39-7.5-72-25.25-100.25-47.5c43.25,21.5,94.75,33.75,153.75,21.5c21.75-5.25,43.5-14.25,62.75-30.5 c12.25-11,19.5-24,25.5-36.75c-2.25,19-10,39-23.5,57C206.75,212.031,190.75,221.531,174,227.781z"/><path stroke="none" d="M103.75,91.281c-33,25.25-62.25,58.25-66,99.75c-19.5-27-18.5-64,1-92 c26.25-38,64-56.25,103.75-71.75c78.5-28.25,162-32,243.5-23.25C286,4.031,186.25,28.281,103.75,91.281z"/><path stroke="none" d="M105.75,141.781c-32.75,25.25-62,58.25-65.75,100c-19.5-27.25-18.5-64,0.75-92.25 c26.25-37.75,64.25-56.25,104-71.75c78.5-28,162-32,243.25-23.25C288.25,54.531,188.25,78.781,105.75,141.781z"/><path stroke="none" d="M79.5,180.281l9.25-12.5H105l-9,12L79.5,180.281z"/></g></g></switch></svg>