<svg xmlns="http://www.w3.org/2000/svg" xmlns:svg="http://www.w3.org/2000/svg" xmlns:xlink="http://www.w3.org/1999/xlink" id="svg2" width="323.857" height="309.571" version="1.1"><defs id="defs4"><linearGradient id="linearGradient3750"><stop id="stop3752" offset="0" stop-color="#17273B" stop-opacity="1"/><stop id="stop4356" offset=".417" stop-color="#008CD4" stop-opacity=".78"/><stop id="stop4358" offset=".878" stop-color="#6EB5DE" stop-opacity=".698"/><stop id="stop3754" offset="1" stop-color="#88BFE5" stop-opacity=".62"/></linearGradient><linearGradient id="linearGradient3284"><stop id="stop3286" offset="0" stop-color="#FFF" stop-opacity="1"/><stop id="stop3288" offset="1" stop-color="#FFF" stop-opacity=".752"/></linearGradient><linearGradient id="linearGradient3278"><stop id="stop3280" offset="0" stop-color="#33BFF7" stop-opacity=".38"/><stop id="stop3282" offset="1" stop-color="#2D446B" stop-opacity="1"/></linearGradient><linearGradient id="linearGradient3272"><stop id="stop3274" offset="0" stop-color="#2596F6" stop-opacity=".38"/><stop id="stop3276" offset="1" stop-color="#2D446B" stop-opacity="1"/></linearGradient><linearGradient id="linearGradient3266"><stop id="stop3268" offset="0" stop-color="#189FFF" stop-opacity=".38"/><stop id="stop3270" offset="1" stop-color="#010B2B" stop-opacity="1"/></linearGradient><linearGradient id="linearGradient3244"><stop id="stop3246" offset="0" stop-color="#419BFF" stop-opacity="1"/><stop id="stop3248" offset="1" stop-color="#002359" stop-opacity="1"/></linearGradient><linearGradient id="linearGradient3159"><stop id="stop3161" offset="0" stop-color="#33BFF7" stop-opacity=".38"/><stop id="stop3163" offset="1" stop-color="#2D446B" stop-opacity="1"/></linearGradient><radialGradient id="radialGradient3256" cx="344.735" cy="77.264" r="196.157" fx="344.735" fy="77.264" gradientTransform="matrix(-1.39796, -0.0533603, 0.0835511, -2.18891, 820.205, 272.083)" gradientUnits="userSpaceOnUse" xlink:href="#linearGradient3244"/><radialGradient id="radialGradient3264" cx="140.336" cy="300.275" r="206.157" fx="140.336" fy="300.275" gradientTransform="matrix(0.677117, -0.683012, 1.18028, 1.17009, -161.84, 77.6392)" gradientUnits="userSpaceOnUse" xlink:href="#linearGradient3159"/><radialGradient id="radialGradient3290" cx="267.504" cy="337.127" r="77.845" fx="267.504" fy="337.127" gradientTransform="matrix(1, 0, 0, 0.743085, 0, 86.613)" gradientUnits="userSpaceOnUse" xlink:href="#linearGradient3284"/><linearGradient id="linearGradient3211"><stop id="stop3213" offset="0" stop-color="#00A0FF" stop-opacity="1"/><stop id="stop3215" offset="1" stop-color="#0025FF" stop-opacity="1"/></linearGradient><filter id="filter3406" color-interpolation-filters="sRGB"><feGaussianBlur id="feGaussianBlur3408" stdDeviation="13.396"/></filter><radialGradient id="radialGradient3416" cx="119.964" cy="229.29" r="203.195" fx="119.964" fy="229.29" gradientTransform="matrix(0.72108, 2.11681, -1.47222, 0.501505, 347.53, -320.941)" gradientUnits="userSpaceOnUse" xlink:href="#linearGradient3284"/><radialGradient id="radialGradient3423" cx="351.155" cy="372.063" r="163.571" fx="351.155" fy="372.063" gradientTransform="matrix(1.14543, -1.16871, 2.02953, 1.91933, -889.063, 57.219)" gradientUnits="userSpaceOnUse" xlink:href="#linearGradient3266"/><radialGradient id="radialGradient3734" cx="119.964" cy="229.29" r="203.195" fx="119.964" fy="229.29" gradientTransform="matrix(0.72108, 2.11681, -1.47222, 0.501505, 347.53, -320.941)" gradientUnits="userSpaceOnUse" xlink:href="#linearGradient3284"/><radialGradient id="radialGradient3736" cx="119.964" cy="229.29" r="203.195" fx="119.964" fy="229.29" gradientTransform="matrix(0.72108, 2.11681, -1.47222, 0.501505, 347.53, -320.941)" gradientUnits="userSpaceOnUse" xlink:href="#linearGradient3284"/><radialGradient id="radialGradient3758" cx="390.697" cy="258.924" r="32.031" fx="390.697" fy="258.924" gradientTransform="matrix(4.02924, -5.59742, 5.16954, 3.72124, -2510.98, 1613.16)" gradientUnits="userSpaceOnUse" xlink:href="#linearGradient3750"/><radialGradient id="radialGradient3760" cx="59.047" cy="248.227" r="197.156" fx="59.047" fy="248.227" gradientTransform="matrix(1.71059, -0.0437052, 0.0333471, 1.30519, -58.5931, -250.183)" gradientUnits="userSpaceOnUse" xlink:href="#linearGradient3750"/><radialGradient id="radialGradient3762" cx="192.64" cy="282.404" r="133.094" fx="192.64" fy="282.404" gradientTransform="matrix(1.00812, 0.449309, -1.05293, 2.36248, 273.137, -455.121)" gradientUnits="userSpaceOnUse" xlink:href="#linearGradient3750"/><radialGradient id="radialGradient4344" cx="24" cy="280.454" r="65.063" fx="24" fy="280.454" gradientTransform="matrix(5.74785, -0.588928, 0.483474, 4.71864, -260.983, -919.446)" gradientUnits="userSpaceOnUse" xlink:href="#linearGradient3750"/><linearGradient id="linearGradient4354" x1="-125.596" x2="-5.288" y1="-100.477" y2="-100.477" gradientUnits="userSpaceOnUse" xlink:href="#linearGradient3750"/></defs><metadata id="metadata7"/><g id="layer4" display="none" transform="translate(-42.3571, -106.148)"><rect id="rect3241" width="330" height="313.5" x="39" y="103.862" fill="#59F" fill-opacity="1" fill-rule="evenodd" stroke="none" stroke-width="60" display="inline" opacity=".87" overflow="visible" visibility="visible" style="marker:none"/></g><g id="layer1" display="inline" transform="translate(-42.3571, -106.148)"><rect id="rect2383" width="322.857" height="308.571" x="42.857" y="106.648" fill="url(#radialGradient3423) rgb(0, 0, 0)" fill-opacity="1" fill-rule="nonzero" stroke="none"/><path id="path3221" fill="#FFF" fill-opacity="1" stroke="none" d="m 43.707165,106.65625 c -1.924412,4.19542 -0.293756,9.91207 -0.796059,14.71602 0.217132,48.00091 0.434263,96.00182 0.651394,144.00273 11.845045,10.47022 28.927257,8.88024 43.590421,10.9124 53.492929,3.44313 107.282979,3.61079 160.606069,-2.44914 34.0261,-3.43502 68.05279,-8.73145 100.89004,-18.4129 8.35969,-2.80704 18.86086,-9.22302 17.06972,-19.34203 0,-43.14236 0,-86.28472 0,-129.42708 -107.3372,0 -214.67439,0 -322.011585,0 z" opacity=".096"/><g id="g3394" fill="#000" fill-opacity="1" filter="url(#filter3406)" opacity=".5" transform="matrix(0.338751, -0.340167, 0.340167, 0.338751, 59.2288, 277.492)"><path id="path3396" fill="#000" fill-opacity="1" fill-rule="evenodd" stroke="none" d="M 412.75,98.59375 C 396.19379,98.835333 382.96319,112.44354 383.1875,129 c 0,0 -10e-6,87.25107 0,196.3125 0,23.30736 -12.11655,39.13192 -38.21875,53.46875 -26.1022,14.33683 -64.97276,22.875 -103.875,22.875 -38.90224,0 -77.7728,-8.53817 -103.875,-22.875 C 111.11655,364.44442 99,348.61986 99,325.3125 c 0,-54.37333 0.441249,-103.35555 0.65625,-138.875 0.1075,-17.75973 0.177008,-32.11577 0.09375,-42.34375 -0.04163,-5.11399 -0.129499,-9.10767 -0.28125,-12.46875 -0.07588,-1.68054 -0.136902,-3.05581 -0.40625,-5.25 -0.134674,-1.09709 -0.168072,-2.2122 -1,-5.1875 C 97.646536,119.69985 97.275733,117.79087 94.875,113.75 92.474267,109.70913 84.912085,98.999943 69,99 59.653467,98.879464 50.78473,103.12192 45.013008,110.47443 39.241286,117.82694 37.226064,127.44941 39.5625,136.5 c 0.06318,2.03091 0.15684,4.32729 0.1875,8.09375 0.07765,9.5394 0.0133,23.81477 -0.09375,41.5 C 39.442151,221.46421 39,270.62442 39,325.3125 c -10e-7,47.58256 30.913445,84.95437 69.34375,106.0625 38.43031,21.10813 85.6089,30.28125 132.75,30.28125 47.1411,0 94.31969,-9.17312 132.75,-30.28125 38.43031,-21.10813 69.34375,-58.47994 69.34375,-106.0625 -10e-6,-109.06142 0,-196.3125 0,-196.3125 0.10978,-8.10283 -3.06279,-15.9055 -8.79582,-21.63265 -5.73304,-5.72715 -13.53896,-8.891699 -21.64168,-8.7736 l 0,0 z"/><path id="path3398" fill="#000" fill-opacity="1" fill-rule="evenodd" stroke="none" d="M 239.5625,99.5 C 223.00629,99.741583 209.77569,113.34979 210,129.90625 L 210,350 c -0.15301,10.81908 5.53126,20.88244 14.87619,26.33663 9.34492,5.45419 20.9027,5.45419 30.24762,0 C 264.46874,370.88244 270.15301,360.81908 270,350 l 0,-220.09375 c 0.10978,-8.10283 -3.06279,-15.9055 -8.79582,-21.63265 -5.73304,-5.72715 -13.53896,-8.891699 -21.64168,-8.7736 l 0,0 z"/><path id="path3400" fill="#000" fill-opacity="1" stroke-dasharray="none" stroke-linecap="round" stroke-linejoin="round" stroke-miterlimit="4" stroke-width="60" d="M 100,40 C 100,56.568542 86.568542,70 70,70 53.431458,70 40,56.568542 40,40 40,23.431458 53.431458,10 70,10 c 16.568542,0 30,13.431458 30,30 z" transform="translate(0, -10)"/><path id="path3402" fill="#000" fill-opacity="1" stroke-dasharray="none" stroke-linecap="round" stroke-linejoin="round" stroke-miterlimit="4" stroke-width="60" d="M 100,40 C 100,56.568542 86.568542,70 70,70 53.431458,70 40,56.568542 40,40 40,23.431458 53.431458,10 70,10 c 16.568542,0 30,13.431458 30,30 z" transform="translate(170, -10)"/><path id="path3404" fill="#000" fill-opacity="1" stroke-dasharray="none" stroke-linecap="round" stroke-linejoin="round" stroke-miterlimit="4" stroke-width="60" d="M 100,40 C 100,56.568542 86.568542,70 70,70 53.431458,70 40,56.568542 40,40 40,23.431458 53.431458,10 70,10 c 16.568542,0 30,13.431458 30,30 z" transform="translate(345, -10)"/></g></g><g id="layer2" display="none" transform="translate(-42.3571, -106.148)"><rect id="rect3247" width="322.857" height="308.571" x="42.857" y="106.648" fill="none" stroke="#000" stroke-dasharray="none" stroke-dashoffset="0" stroke-linecap="round" stroke-linejoin="miter" stroke-miterlimit="4" stroke-opacity="1" stroke-width="1"/><rect id="rect3253" width="212.077" height="98.217" x="42.851" y="218.038" fill="none" stroke="#000" stroke-dasharray="none" stroke-dashoffset="0" stroke-linecap="round" stroke-linejoin="miter" stroke-miterlimit="4" stroke-opacity="1" stroke-width="1"/><rect id="rect3257" width="110.753" height="70.944" x="254.941" y="274.262" fill="none" stroke="#000" stroke-dasharray="none" stroke-dashoffset="0" stroke-linecap="round" stroke-linejoin="miter" stroke-miterlimit="4" stroke-opacity="1" stroke-width="1"/><rect id="rect3259" width="110.769" height="56.235" x="254.94" y="218.025" fill="none" stroke="#000" stroke-dasharray="none" stroke-dashoffset="0" stroke-linecap="round" stroke-linejoin="miter" stroke-miterlimit="4" stroke-opacity="1" stroke-width="1"/><rect id="rect3255" width="110.78" height="69.955" x="254.916" y="345.253" fill="none" stroke="#000" stroke-dasharray="none" stroke-dashoffset="0" stroke-linecap="round" stroke-linejoin="miter" stroke-miterlimit="4" stroke-opacity="1" stroke-width="1"/><rect id="rect3249" width="106.876" height="111.692" x="42.85" y="106.321" fill="none" stroke="#000" stroke-dasharray="none" stroke-dashoffset="0" stroke-linecap="round" stroke-linejoin="miter" stroke-miterlimit="4" stroke-opacity="1" stroke-width="1"/><rect id="rect3261" width="105.189" height="111.578" x="149.722" y="106.452" fill="none" stroke="#000" stroke-dasharray="none" stroke-dashoffset="0" stroke-linecap="round" stroke-linejoin="miter" stroke-miterlimit="4" stroke-opacity="1" stroke-width="1"/><rect id="rect3263" width="110.786" height="111.572" x="254.916" y="106.455" fill="none" stroke="#000" stroke-dasharray="none" stroke-dashoffset="0" stroke-linecap="round" stroke-linejoin="miter" stroke-miterlimit="4" stroke-opacity="1" stroke-width="1"/><rect id="rect3251" width="212.079" height="98.98" x="42.848" y="316.229" fill="none" stroke="#000" stroke-dasharray="none" stroke-dashoffset="0" stroke-linecap="round" stroke-linejoin="miter" stroke-miterlimit="4" stroke-opacity="1" stroke-width="1" display="inline"/></g><g id="layer5" display="inline" transform="translate(-42.3571, -106.148)"><rect id="rect3244" width="322.857" height="308.571" x="42.857" y="106.648" fill="none" stroke="#000" stroke-dasharray="none" stroke-dashoffset="0" stroke-linecap="round" stroke-linejoin="miter" stroke-miterlimit="4" stroke-opacity="1" stroke-width="1" display="inline"/><rect id="rect3246" width="322.857" height="308.571" x="42.857" y="106.648" fill="none" stroke="#000" stroke-dasharray="none" stroke-dashoffset="0" stroke-linecap="round" stroke-linejoin="miter" stroke-miterlimit="4" stroke-opacity="1" stroke-width="1" display="inline"/><path id="path73" fill="none" stroke="#000" stroke-dashoffset="0" stroke-linecap="round" stroke-linejoin="miter" stroke-miterlimit="4" stroke-opacity="1" stroke-width="1" d="m 182.85714,106.6479 0,308.57145 0,-308.57145 z" display="inline"/><path stroke-miterlimit="4" style="marker:none" id="path3254" fill="none" stroke="#000" stroke-dasharray="none" stroke-dashoffset="0" stroke-linecap="round" stroke-linejoin="miter" stroke-opacity="1" stroke-width="1" d="m 182.41744,207.43363 -139.120598,0 139.120598,0 z" display="inline" overflow="visible" visibility="visible"/><path id="path3256" fill="none" stroke="#000" stroke-dasharray="none" stroke-dashoffset="0" stroke-linecap="round" stroke-linejoin="miter" stroke-miterlimit="4" stroke-opacity="1" stroke-width="1" d="m 182.41744,313.43363 -139.120598,0 139.120598,0 z" display="inline" overflow="visible" visibility="visible" style="marker:none"/></g><g id="layer3" display="inline" transform="translate(-42.3571, -106.148)"><path id="path2405" fill="#FFF" fill-opacity="1" fill-rule="evenodd" stroke="none" stroke-width="60" d="m 232.58675,170.48705 c -5.52626,5.71371 -5.37908,14.82412 0.32886,20.35634 0,0 29.67992,29.55642 66.779,66.50112 7.92839,7.8954 9.20688,17.37763 5.24164,31.11336 -3.96524,13.73572 -14.22829,29.85051 -27.40648,43.08376 -13.17818,13.23325 -29.25004,23.56341 -42.9691,27.58589 -13.71907,4.02248 -23.20656,2.78354 -31.13495,-5.11186 -18.496,-18.41904 -35.00865,-35.16193 -47.01836,-47.26732 -6.00485,-6.0527 -10.86475,-10.93947 -14.37218,-14.37589 -1.75371,-1.71821 -3.14199,-3.04119 -4.33673,-4.12814 -0.59736,-0.54347 -1.08586,-0.98859 -1.92349,-1.64025 -0.41881,-0.32583 -0.80945,-0.69221 -2.10337,-1.4171 -0.64695,-0.36245 -1.42193,-0.88298 -3.60976,-1.43518 -2.18782,-0.55221 -8.39243,-1.60755 -13.78265,3.80523 -3.20715,3.13855 -4.7683,7.59254 -4.2224,12.04656 0.5459,4.45402 3.13649,8.39915 7.00667,10.67027 0.71225,0.66649 1.52513,1.41253 2.81674,2.67799 3.27129,3.20507 8.1055,8.06276 14.08516,14.09007 11.95933,12.05462 28.53222,28.85811 47.13529,47.38377 16.18601,16.11865 39.37063,18.26267 59.56923,12.34037 20.1986,-5.92231 39.3008,-18.8635 55.26991,-34.89933 15.96911,-16.03584 28.83053,-35.19184 34.66856,-55.41496 5.83803,-20.22312 3.59735,-43.3986 -12.58866,-59.51725 -37.09907,-36.9447 -66.77899,-66.50112 -66.77899,-66.50112 -2.71913,-2.78218 -6.44805,-4.34615 -10.3383,-4.33604 -3.89027,0.0101 -7.61101,1.59343 -10.31564,4.38971 l 0,0 z" color="#000" display="inline" opacity=".87" overflow="visible" visibility="visible" style="marker:none"/><path id="path3179" fill="#FFF" fill-opacity="1" fill-rule="evenodd" stroke="none" d="m 174.22754,229.70669 c -5.52626,5.7137 -5.37909,14.82411 0.32886,20.35633 l 74.86858,74.55705 c 3.62846,3.71702 8.97724,5.1924 13.99818,3.86118 5.02094,-1.33122 8.93615,-5.26279 10.24642,-10.28924 1.31027,-5.02645 -0.18739,-10.36902 -3.91952,-13.98195 l -74.86858,-74.55704 c -2.71913,-2.78219 -6.44805,-4.34615 -10.33831,-4.33605 -3.89026,0.0101 -7.611,1.59343 -10.31563,4.38972 l 0,0 z" display="inline" opacity=".87"/><path id="path3181" fill="#FFF" fill-opacity="1" fill-rule="evenodd" stroke="none" stroke-width="124.982" d="M 100,40 C 100,56.568542 86.568542,70 70,70 53.431458,70 40,56.568542 40,40 40,23.431458 53.431458,10 70,10 c 16.568542,0 30,13.431458 30,30 z" color="#000" display="inline" opacity=".87" overflow="visible" transform="matrix(0.338751, -0.340167, 0.340167, 0.338751, 55.8272, 274.105)" visibility="visible" style="marker:none"/><path id="path3183" fill="#FFF" fill-opacity="1" fill-rule="evenodd" stroke="none" stroke-width="124.982" d="M 100,40 C 100,56.568542 86.568542,70 70,70 53.431458,70 40,56.568542 40,40 40,23.431458 53.431458,10 70,10 c 16.568542,0 30,13.431458 30,30 z" color="#000" display="inline" opacity=".87" overflow="visible" transform="matrix(0.338751, -0.340167, 0.340167, 0.338751, 113.415, 216.276)" visibility="visible" style="marker:none"/><path id="path3185" fill="#FFF" fill-opacity="1" fill-rule="evenodd" stroke="none" stroke-width="124.982" d="M 100,40 C 100,56.568542 86.568542,70 70,70 53.431458,70 40,56.568542 40,40 40,23.431458 53.431458,10 70,10 c 16.568542,0 30,13.431458 30,30 z" color="#000" display="inline" opacity=".87" overflow="visible" transform="matrix(0.338751, -0.340167, 0.340167, 0.338751, 172.696, 156.747)" visibility="visible" style="marker:none"/></g></svg>