<svg xmlns="http://www.w3.org/2000/svg" xmlns:svg="http://www.w3.org/2000/svg" xmlns:xlink="http://www.w3.org/1999/xlink" id="svg1291" width="128" height="128" version="1.0"><defs id="defs3"><linearGradient id="linearGradient3833"><stop id="stop3835" offset="0" stop-color="#fff" stop-opacity="1"/><stop id="stop3837" offset="1" stop-color="#fff" stop-opacity="0"/></linearGradient><linearGradient id="linearGradient3722"><stop id="stop3724" offset="0" stop-color="#f85b00" stop-opacity="1"/><stop id="stop3726" offset="1" stop-color="#f85b00" stop-opacity="0"/></linearGradient><linearGradient id="linearGradient3709"><stop id="stop3711" offset="0" stop-color="#fffe00" stop-opacity="1"/><stop id="stop3714" offset="1" stop-color="#fffe00" stop-opacity="0"/></linearGradient><linearGradient id="linearGradient3699"><stop id="stop3701" offset="0" stop-color="#00ce20" stop-opacity="1"/><stop id="stop3703" offset="1" stop-color="#086500" stop-opacity="1"/></linearGradient><linearGradient id="linearGradient3693"><stop id="stop3695" offset="0" stop-color="#00ff28" stop-opacity="1"/><stop id="stop3697" offset="1" stop-color="#086500" stop-opacity="1"/></linearGradient><linearGradient id="linearGradient3687"><stop id="stop3689" offset="0" stop-color="#00ff28" stop-opacity="1"/><stop id="stop3691" offset="1" stop-color="#086500" stop-opacity="1"/></linearGradient><linearGradient id="linearGradient3681" x1="-84.002" x2="-12.003" y1="-383.997" y2="-383.997" gradientTransform="matrix(0,1,-1,0,-39.9985,140.0029)" gradientUnits="userSpaceOnUse"><stop id="stop3683" offset="0" stop-color="#03ff00" stop-opacity="1"/><stop id="stop3685" offset="1" stop-color="#00f507" stop-opacity="0"/></linearGradient><linearGradient id="linearGradient3667" x1="-84.002" x2="-12.003" y1="-383.997" y2="-383.997" gradientTransform="matrix(0,1,-1,0,-39.9985,140.0029)" gradientUnits="userSpaceOnUse"><stop id="stop3669" offset="0" stop-color="#00f2ff" stop-opacity="1"/><stop id="stop3671" offset="1" stop-color="#acf4ff" stop-opacity="0"/></linearGradient><linearGradient id="linearGradient3661"><stop id="stop3663" offset="0" stop-color="#008dff" stop-opacity="1"/><stop id="stop3665" offset="1" stop-color="#000765" stop-opacity="1"/></linearGradient><linearGradient id="linearGradient3448"><stop id="stop3450" offset="0" stop-color="#541c00" stop-opacity="1"/><stop id="stop3452" offset="1" stop-color="#541c00" stop-opacity="0"/></linearGradient><linearGradient id="linearGradient3384"><stop id="stop3386" offset="0" stop-color="#fff" stop-opacity="1"/><stop id="stop3388" offset="1" stop-color="#fff" stop-opacity="0"/></linearGradient><linearGradient id="linearGradient3368"><stop id="stop3370" offset="0" stop-color="#fff" stop-opacity="1"/><stop id="stop3372" offset="1" stop-color="#fff" stop-opacity="0"/></linearGradient><linearGradient id="linearGradient3140"><stop id="stop3142" offset="0" stop-color="#542e00" stop-opacity="1"/><stop id="stop3144" offset="1" stop-color="#542e00" stop-opacity="0"/></linearGradient><linearGradient id="linearGradient5231"><stop id="stop5233" offset="0" stop-color="#e9ffe9" stop-opacity="1"/><stop id="stop6003" offset=".017" stop-color="#ffe" stop-opacity=".573"/><stop id="stop5237" offset=".174" stop-color="#ffffd0" stop-opacity=".145"/><stop id="stop6001" offset=".549" stop-color="#fff" stop-opacity=".146"/><stop id="stop5235" offset="1" stop-color="#fff" stop-opacity="0"/></linearGradient><linearGradient id="linearGradient18262"><stop id="stop18264" offset="0" stop-color="#000" stop-opacity="1"/><stop id="stop18266" offset="1" stop-color="#000" stop-opacity="0"/></linearGradient><linearGradient id="linearGradient18251"><stop id="stop18253" offset="0" stop-color="#ffa100" stop-opacity="1"/><stop id="stop18255" offset="1" stop-color="#ff0" stop-opacity="0"/></linearGradient><linearGradient id="linearGradient8197"><stop id="stop8199" offset="0" stop-color="#fff" stop-opacity="1"/><stop id="stop8201" offset="1" stop-color="#fff" stop-opacity="0"/></linearGradient><linearGradient id="linearGradient7417"><stop id="stop7419" offset="0" stop-color="#ff5900" stop-opacity="1"/><stop id="stop7421" offset="1" stop-color="#ff0" stop-opacity="1"/></linearGradient><linearGradient id="linearGradient7435" x1="20.683" x2="22.553" y1="57.744" y2="61.497" gradientTransform="matrix(-11.447215,-3.6465774,-0.8154005,10.096541,336.38497,-429.17971)" gradientUnits="userSpaceOnUse" spreadMethod="reflect" xlink:href="#linearGradient7417"/><linearGradient id="linearGradient18333" x1="24.938" x2="20.157" y1="67.262" y2="44.914" gradientTransform="scale(1.506975,0.663581)" gradientUnits="userSpaceOnUse" xlink:href="#linearGradient18262"/><linearGradient id="linearGradient18335" x1="24.938" x2="20.157" y1="67.262" y2="44.914" gradientTransform="scale(1.506975,0.663581)" gradientUnits="userSpaceOnUse" xlink:href="#linearGradient18262"/><linearGradient id="linearGradient18337" x1="24.938" x2="20.157" y1="67.262" y2="44.914" gradientTransform="scale(1.506975,0.663581)" gradientUnits="userSpaceOnUse" xlink:href="#linearGradient18262"/><linearGradient id="linearGradient18339" x1="24.938" x2="20.157" y1="67.262" y2="44.914" gradientTransform="scale(1.506975,0.663581)" gradientUnits="userSpaceOnUse" xlink:href="#linearGradient18262"/><linearGradient id="linearGradient18341" x1="24.938" x2="20.157" y1="67.262" y2="44.914" gradientTransform="scale(1.506975,0.663581)" gradientUnits="userSpaceOnUse" xlink:href="#linearGradient18262"/><linearGradient id="linearGradient18343" x1="24.938" x2="20.157" y1="67.262" y2="44.914" gradientTransform="scale(1.506975,0.663581)" gradientUnits="userSpaceOnUse" xlink:href="#linearGradient18262"/><linearGradient id="linearGradient18345" x1="24.938" x2="20.157" y1="67.262" y2="44.914" gradientTransform="scale(1.506975,0.663581)" gradientUnits="userSpaceOnUse" xlink:href="#linearGradient18262"/><linearGradient id="linearGradient18347" x1="24.938" x2="20.157" y1="67.262" y2="44.914" gradientTransform="scale(1.506975,0.663581)" gradientUnits="userSpaceOnUse" xlink:href="#linearGradient18262"/><linearGradient id="linearGradient18349" x1="24.938" x2="20.157" y1="67.262" y2="44.914" gradientTransform="scale(1.506975,0.663581)" gradientUnits="userSpaceOnUse" xlink:href="#linearGradient18262"/><linearGradient id="linearGradient3146" x1="32.613" x2="32.257" y1="39.31" y2="53.061" gradientUnits="userSpaceOnUse" xlink:href="#linearGradient3140"/><filter id="filter3184"><feGaussianBlur id="feGaussianBlur3186" stdDeviation=".163"/></filter><clipPath id="clipPath3188" clipPathUnits="userSpaceOnUse"><path id="path3190" fill="url(#linearGradient3192)" fill-opacity="1" fill-rule="evenodd" stroke="none" stroke-linecap="butt" stroke-linejoin="miter" stroke-miterlimit="4" stroke-opacity="1" stroke-width=".7" d="M 26.976529,42.423929 C 25.902648,42.490391 24.432756,42.496024 24.435236,43.960191 C 24.623181,44.34851 24.767371,44.830788 26.872003,45.612683 C 29.410607,46.555804 34.113417,47.327091 37.574314,46.040776 C 42.800842,44.098227 34.848793,40.004672 33.764292,40.175908 C 32.685577,40.346232 34.655001,42.440294 32.539769,42.583215 C 30.427846,42.725912 29.166935,42.288366 26.976529,42.423929 z"/></clipPath><linearGradient id="linearGradient3192" x1="20.683" x2="22.553" y1="57.744" y2="61.497" gradientTransform="matrix(1.500584,0,0,0.666407,1.9998306,5.6460418)" gradientUnits="userSpaceOnUse" spreadMethod="reflect" xlink:href="#linearGradient7417"/><filter id="filter3314"><feGaussianBlur id="feGaussianBlur3316" stdDeviation=".088"/></filter><linearGradient id="linearGradient3366" x1="19.669" x2="20.377" y1="55.149" y2="59.756" gradientTransform="matrix(-11.447215,-3.6465774,-0.8154005,10.096541,335.43406,-429.17971)" gradientUnits="userSpaceOnUse" spreadMethod="reflect" xlink:href="#linearGradient8197"/><linearGradient id="linearGradient3380" x1="-21.542" x2="-19.568" y1="47.374" y2="49.737" gradientTransform="matrix(14.017982,0,0,14.017982,333.00239,-646.89274)" gradientUnits="userSpaceOnUse" xlink:href="#linearGradient3368"/><radialGradient id="radialGradient3390" cx="-20.545" cy="47.667" r=".307" fx="-20.545" fy="47.667" gradientTransform="matrix(1,0,0,0.5263158,0,22.579177)" gradientUnits="userSpaceOnUse" xlink:href="#linearGradient3384"/><radialGradient id="radialGradient3394" cx="-20.545" cy="47.667" r=".307" fx="-20.545" fy="47.667" gradientTransform="matrix(1,0,0,0.5263158,0,22.579177)" gradientUnits="userSpaceOnUse" xlink:href="#linearGradient3384"/><filter id="filter3430"><feGaussianBlur id="feGaussianBlur3432" stdDeviation=".04"/></filter><clipPath id="clipPath3436" clipPathUnits="userSpaceOnUse"><path id="path3438" fill="url(#linearGradient3440)" fill-opacity="1" fill-rule="evenodd" stroke="none" stroke-linecap="butt" stroke-linejoin="miter" stroke-miterlimit="4" stroke-opacity="1" stroke-width=".1" d="M -7.03082,52.330923 C -6.951056,52.630565 -6.934601,53.87339 -8.062747,54.489419 C -8.903546,54.948541 -11.38699,55.325187 -13.089639,53.426259 C -14.855973,51.456305 -13.686268,49.162786 -12.370936,48.011974 C -11.686154,47.412843 -10.891313,47.170491 -10.60116,47.344489 C -10.293765,47.528826 -10.285011,47.899706 -10.530328,48.074046 C -11.119575,48.492809 -11.644091,49.683466 -11.06199,50.508123 C -10.374778,51.481691 -9.206572,51.079541 -8.60205,51.004218 C -8.102498,50.941974 -7.319476,51.24655 -7.03082,52.330923 z"/></clipPath><linearGradient id="linearGradient3440" x1="20.683" x2="22.553" y1="57.744" y2="61.497" gradientTransform="matrix(-0.8166093,-0.2601357,-5.8168184e-2,0.7202564,9.6988617,15.530984)" gradientUnits="userSpaceOnUse" spreadMethod="reflect" xlink:href="#linearGradient7417"/><clipPath id="clipPath3442" clipPathUnits="userSpaceOnUse"><path id="path3444" fill="url(#linearGradient3446)" fill-opacity="1" fill-rule="evenodd" stroke="none" stroke-linecap="butt" stroke-linejoin="miter" stroke-miterlimit="4" stroke-opacity="1" stroke-width=".1" d="M -7.03082,52.330923 C -6.951056,52.630565 -6.934601,53.87339 -8.062747,54.489419 C -8.903546,54.948541 -11.38699,55.325187 -13.089639,53.426259 C -14.855973,51.456305 -13.686268,49.162786 -12.370936,48.011974 C -11.686154,47.412843 -10.891313,47.170491 -10.60116,47.344489 C -10.293765,47.528826 -10.285011,47.899706 -10.530328,48.074046 C -11.119575,48.492809 -11.644091,49.683466 -11.06199,50.508123 C -10.374778,51.481691 -9.206572,51.079541 -8.60205,51.004218 C -8.102498,50.941974 -7.319476,51.24655 -7.03082,52.330923 z"/></clipPath><linearGradient id="linearGradient3446" x1="20.683" x2="22.553" y1="57.744" y2="61.497" gradientTransform="matrix(-0.8166093,-0.2601357,-5.8168184e-2,0.7202564,9.6988617,15.530984)" gradientUnits="userSpaceOnUse" spreadMethod="reflect" xlink:href="#linearGradient7417"/><linearGradient id="linearGradient3454" x1="-11.065" x2="-9.099" y1="53.541" y2="49.158" gradientUnits="userSpaceOnUse" xlink:href="#linearGradient3448"/><filter id="filter3162"><feGaussianBlur id="feGaussianBlur3164" stdDeviation=".968"/></filter><filter id="filter3138"><feGaussianBlur id="feGaussianBlur3140" stdDeviation="5.651"/></filter><linearGradient id="linearGradient3010" x1="328.124" x2="336.981" y1="120.812" y2="87.759" gradientUnits="userSpaceOnUse" xlink:href="#linearGradient4296"/><linearGradient id="linearGradient2997" x1="328.124" x2="336.981" y1="120.812" y2="87.759" gradientUnits="userSpaceOnUse" xlink:href="#linearGradient4296"/><linearGradient id="linearGradient2390" x1="328.124" x2="336.981" y1="120.812" y2="87.759" gradientUnits="userSpaceOnUse" xlink:href="#linearGradient4296"/><linearGradient id="linearGradient8922" x1="351.022" x2="309.219" y1="65.789" y2="82.681" gradientUnits="userSpaceOnUse" xlink:href="#linearGradient7321"/><filter id="filter7317"><feGaussianBlur id="feGaussianBlur7319" stdDeviation="2.881"/></filter><clipPath id="clipPath5163" clipPathUnits="userSpaceOnUse"><circle id="circle5165" cx="343.999" cy="92" r="36" fill="url(#linearGradient5167)" fill-opacity="1" rx="8.001" ry="8.001"/></clipPath><linearGradient id="linearGradient3273"><stop id="stop3275" offset="0" stop-color="#fff" stop-opacity=".55"/><stop id="stop3277" offset="1" stop-color="#fff" stop-opacity="0"/></linearGradient><linearGradient id="linearGradient1563"><stop id="stop1565" offset="0" stop-color="#fff" stop-opacity="1"/><stop id="stop1567" offset="1" stop-color="#fff" stop-opacity="0"/></linearGradient><linearGradient id="linearGradient3290"><stop id="stop3292" offset="0" stop-color="#ff0" stop-opacity="1"/><stop id="stop3294" offset="1" stop-color="#ffb66d" stop-opacity="1"/></linearGradient><linearGradient id="linearGradient3711" x1="-84.002" x2="-23.516" y1="-383.997" y2="-383.998" gradientTransform="matrix(0,1,-1,0,-39.9985,140.0029)" gradientUnits="userSpaceOnUse"><stop id="stop3713" offset="0" stop-color="#fff" stop-opacity="1"/><stop id="stop3715" offset="1" stop-color="#fff" stop-opacity="0"/></linearGradient><linearGradient id="linearGradient4770" x1="-84.002" x2="-12.003" y1="-383.997" y2="-383.997" gradientTransform="matrix(0,1,-1,0,-39.9985,140.0029)" gradientUnits="userSpaceOnUse"><stop id="stop4772" offset="0" stop-color="#ffbe00" stop-opacity="1"/><stop id="stop4774" offset="1" stop-color="#f5d600" stop-opacity="0"/></linearGradient><linearGradient id="linearGradient5958" x1="-84.002" x2="-12.003" y1="-383.997" y2="-383.997" gradientTransform="matrix(0,1,-1,0,-39.9985,140.0029)" gradientUnits="userSpaceOnUse"><stop id="stop5960" offset="0" stop-color="#8c0000" stop-opacity="1"/><stop id="stop5962" offset="1" stop-color="#bf0000" stop-opacity="1"/></linearGradient><linearGradient id="linearGradient6740"><stop id="stop6742" offset="0" stop-color="#4d0000" stop-opacity="0"/><stop id="stop6748" offset=".5" stop-color="#4d0000" stop-opacity="1"/><stop id="stop6744" offset="1" stop-color="#4d0000" stop-opacity="0"/></linearGradient><linearGradient id="linearGradient7321"><stop id="stop7323" offset="0" stop-color="#8c0000" stop-opacity="1"/><stop id="stop7325" offset="1" stop-color="#650000" stop-opacity="1"/></linearGradient><linearGradient id="linearGradient4272" x1="328.124" x2="336.981" y1="120.812" y2="87.759" gradientUnits="userSpaceOnUse" xlink:href="#linearGradient4296"/><linearGradient id="linearGradient4296"><stop id="stop4298" offset="0" stop-color="red" stop-opacity="1"/><stop id="stop4300" offset="1" stop-color="#650000" stop-opacity="1"/></linearGradient><linearGradient id="linearGradient3577" x1="-80.003" x2="-45.097" y1="-131.931" y2="-131.931" gradientTransform="matrix(0,0.1589242,-0.1589242,0,46.369552,18.481669)" gradientUnits="userSpaceOnUse" xlink:href="#linearGradient3711"/><linearGradient id="linearGradient3583" x1="328.124" x2="336.981" y1="120.812" y2="87.759" gradientUnits="userSpaceOnUse" xlink:href="#linearGradient3661"/><radialGradient id="radialGradient3585" cx="345.808" cy="85.25" r="36" fx="345.808" fy="85.25" gradientTransform="matrix(0.6662862,-0.6560105,0.9893764,1.0048737,31.05592,226.43791)" gradientUnits="userSpaceOnUse" xlink:href="#linearGradient3667"/><linearGradient id="linearGradient3587" x1="-86.12" x2="-56.358" y1="-381.099" y2="-373.124" gradientTransform="matrix(0,1,-1,0,-39.9985,140.0029)" gradientUnits="userSpaceOnUse" xlink:href="#linearGradient3661"/><linearGradient id="linearGradient3603" x1="328.124" x2="336.981" y1="120.812" y2="87.759" gradientUnits="userSpaceOnUse" xlink:href="#linearGradient4296"/><linearGradient id="linearGradient3621" x1="328.124" x2="336.981" y1="120.812" y2="87.759" gradientUnits="userSpaceOnUse" xlink:href="#linearGradient4296"/><linearGradient id="linearGradient3635" x1="-86.12" x2="-56.358" y1="-381.099" y2="-373.124" gradientTransform="matrix(0,1,-1,0,-39.9985,140.0029)" gradientUnits="userSpaceOnUse" xlink:href="#linearGradient5958"/><radialGradient id="radialGradient3637" cx="345.808" cy="85.25" r="36" fx="345.808" fy="85.25" gradientTransform="matrix(0.6662862,-0.6560105,0.9893764,1.0048737,31.05592,226.43791)" gradientUnits="userSpaceOnUse" xlink:href="#linearGradient4770"/><linearGradient id="linearGradient3639" x1="328.124" x2="336.981" y1="120.812" y2="87.759" gradientUnits="userSpaceOnUse" xlink:href="#linearGradient4296"/><linearGradient id="linearGradient3641" x1="-80.003" x2="-45.097" y1="-131.931" y2="-131.931" gradientTransform="matrix(0,0.1589242,-0.1589242,0,67.754047,16.011185)" gradientUnits="userSpaceOnUse" xlink:href="#linearGradient3711"/><linearGradient id="linearGradient3653" x1="-86.12" x2="-56.358" y1="-381.099" y2="-373.124" gradientTransform="matrix(0,1,-1,0,-39.9985,140.0029)" gradientUnits="userSpaceOnUse" xlink:href="#linearGradient3699"/><radialGradient id="radialGradient3655" cx="345.808" cy="85.25" r="36" fx="345.808" fy="85.25" gradientTransform="matrix(0.6662862,-0.6560105,0.9893764,1.0048737,31.05592,226.43791)" gradientUnits="userSpaceOnUse" xlink:href="#linearGradient3681"/><linearGradient id="linearGradient3657" x1="328.124" x2="336.981" y1="120.812" y2="87.759" gradientUnits="userSpaceOnUse" xlink:href="#linearGradient3687"/><linearGradient id="linearGradient3659" x1="-80.003" x2="-45.097" y1="-131.931" y2="-131.931" gradientTransform="matrix(0,0.1589242,-0.1589242,0,86.228969,24.926409)" gradientUnits="userSpaceOnUse" xlink:href="#linearGradient3711"/><radialGradient id="radialGradient3716" cx="52.784" cy="123.501" r="44.774" fx="54.85" fy="119.025" gradientTransform="matrix(1.0937783,0,0,0.7571813,-4.3905276,5.129085)" gradientUnits="userSpaceOnUse" xlink:href="#linearGradient3709"/><linearGradient id="linearGradient3728" x1="160.294" x2="241.807" y1="123.122" y2="71.63" gradientUnits="userSpaceOnUse" xlink:href="#linearGradient3722"/><linearGradient id="linearGradient3732" x1="160.294" x2="241.807" y1="123.122" y2="71.63" gradientTransform="translate(-3,2)" gradientUnits="userSpaceOnUse" xlink:href="#linearGradient3722"/><clipPath id="clipPath3739" clipPathUnits="userSpaceOnUse"><path id="path3741" fill="url(#linearGradient3743)" fill-opacity="1" fill-rule="evenodd" stroke="none" stroke-linecap="butt" stroke-linejoin="miter" stroke-miterlimit="4" stroke-opacity="1" stroke-width=".1" d="M 241.39794,87.718739 C 242.42021,91.558959 242.63109,107.48707 228.17265,115.38218 C 217.39688,121.26631 185.56879,126.0935 163.74745,101.75661 C 141.10992,76.509516 156.10099,47.115514 172.95843,32.366608 C 181.73467,24.688094 191.92144,21.581982 195.64007,23.811985 C 199.57968,26.174506 199.69187,30.927745 196.54786,33.162105 C 188.99601,38.528978 182.27376,53.788606 189.73403,64.357538 C 198.54141,76.834788 213.51326,71.680791 221.26088,70.71548 C 227.6632,69.917806 237.69849,73.821209 241.39794,87.718739 z"/></clipPath><linearGradient id="linearGradient3743" x1="160.294" x2="241.807" y1="123.122" y2="71.63" gradientUnits="userSpaceOnUse" xlink:href="#linearGradient3722"/><filter id="filter3809"><feGaussianBlur id="feGaussianBlur3811" stdDeviation="2.268"/></filter><linearGradient id="linearGradient3829" x1="-11.065" x2="-9.099" y1="53.541" y2="49.158" gradientUnits="userSpaceOnUse" xlink:href="#linearGradient3448"/><radialGradient id="radialGradient3839" cx="63.782" cy="10.507" r="2.524" fx="63.782" fy="10.507" gradientTransform="matrix(1,0,0,1.2046138,0,-2.1498311)" gradientUnits="userSpaceOnUse" xlink:href="#linearGradient3833"/><radialGradient id="radialGradient3843" cx="63.782" cy="10.507" r="2.524" fx="63.782" fy="10.507" gradientTransform="matrix(1,0,0,1.2046138,0,-2.1498311)" gradientUnits="userSpaceOnUse" xlink:href="#linearGradient3833"/><radialGradient id="radialGradient3847" cx="63.782" cy="10.507" r="2.524" fx="63.782" fy="10.507" gradientTransform="matrix(1,0,0,1.2046138,0,-2.1498311)" gradientUnits="userSpaceOnUse" xlink:href="#linearGradient3833"/><linearGradient id="linearGradient3873" x1="-86.12" x2="-56.358" y1="-381.099" y2="-373.124" gradientTransform="matrix(0,1,-1,0,-39.9985,140.0029)" gradientUnits="userSpaceOnUse" xlink:href="#linearGradient3699"/><radialGradient id="radialGradient3875" cx="345.808" cy="85.25" r="36" fx="345.808" fy="85.25" gradientTransform="matrix(0.6662862,-0.6560105,0.9893764,1.0048737,31.05592,226.43791)" gradientUnits="userSpaceOnUse" xlink:href="#linearGradient3681"/><linearGradient id="linearGradient3877" x1="328.124" x2="336.981" y1="120.812" y2="87.759" gradientUnits="userSpaceOnUse" xlink:href="#linearGradient3687"/><linearGradient id="linearGradient3879" x1="-80.003" x2="-45.097" y1="-131.931" y2="-131.931" gradientTransform="matrix(0,0.1589242,-0.1589242,0,86.228969,24.926409)" gradientUnits="userSpaceOnUse" xlink:href="#linearGradient3711"/><radialGradient id="radialGradient3881" cx="63.782" cy="10.507" r="2.524" fx="63.782" fy="10.507" gradientTransform="matrix(1,0,0,1.2046138,0,-2.1498311)" gradientUnits="userSpaceOnUse" xlink:href="#linearGradient3833"/><linearGradient id="linearGradient3883" x1="-86.12" x2="-56.358" y1="-381.099" y2="-373.124" gradientTransform="matrix(0,1,-1,0,-39.9985,140.0029)" gradientUnits="userSpaceOnUse" xlink:href="#linearGradient5958"/><radialGradient id="radialGradient3885" cx="345.808" cy="85.25" r="36" fx="345.808" fy="85.25" gradientTransform="matrix(0.6662862,-0.6560105,0.9893764,1.0048737,31.05592,226.43791)" gradientUnits="userSpaceOnUse" xlink:href="#linearGradient4770"/><linearGradient id="linearGradient3887" x1="328.124" x2="336.981" y1="120.812" y2="87.759" gradientUnits="userSpaceOnUse" xlink:href="#linearGradient4296"/><linearGradient id="linearGradient3889" x1="-80.003" x2="-45.097" y1="-131.931" y2="-131.931" gradientTransform="matrix(0,0.1589242,-0.1589242,0,67.754047,16.011185)" gradientUnits="userSpaceOnUse" xlink:href="#linearGradient3711"/><radialGradient id="radialGradient3891" cx="63.782" cy="10.507" r="2.524" fx="63.782" fy="10.507" gradientTransform="matrix(1,0,0,1.2046138,0,-2.1498311)" gradientUnits="userSpaceOnUse" xlink:href="#linearGradient3833"/><linearGradient id="linearGradient3893" x1="-86.12" x2="-56.358" y1="-381.099" y2="-373.124" gradientTransform="matrix(0,1,-1,0,-39.9985,140.0029)" gradientUnits="userSpaceOnUse" xlink:href="#linearGradient3661"/><radialGradient id="radialGradient3895" cx="345.808" cy="85.25" r="36" fx="345.808" fy="85.25" gradientTransform="matrix(0.6662862,-0.6560105,0.9893764,1.0048737,31.05592,226.43791)" gradientUnits="userSpaceOnUse" xlink:href="#linearGradient3667"/><linearGradient id="linearGradient3897" x1="328.124" x2="336.981" y1="120.812" y2="87.759" gradientUnits="userSpaceOnUse" xlink:href="#linearGradient3661"/><linearGradient id="linearGradient3899" x1="-80.003" x2="-45.097" y1="-131.931" y2="-131.931" gradientTransform="matrix(0,0.1589242,-0.1589242,0,46.369552,18.481669)" gradientUnits="userSpaceOnUse" xlink:href="#linearGradient3711"/><radialGradient id="radialGradient3901" cx="63.782" cy="10.507" r="2.524" fx="63.782" fy="10.507" gradientTransform="matrix(1,0,0,1.2046138,0,-2.1498311)" gradientUnits="userSpaceOnUse" xlink:href="#linearGradient3833"/></defs><metadata id="metadata4"/><g id="layer1"><path id="path3196" fill="#411200" fill-opacity="1" fill-rule="evenodd" stroke="none" stroke-linecap="butt" stroke-linejoin="miter" stroke-miterlimit="4" stroke-opacity="1" stroke-width=".1" d="M 10.883669,122.05218 C 10.963433,122.35182 10.979888,123.59464 9.8517417,124.21067 C 9.0109427,124.66979 6.5274987,125.04644 4.8248497,123.14751 C 3.0585157,121.17756 4.2282207,118.88404 5.5435527,117.73323 C 6.2283347,117.1341 7.0231757,116.89174 7.3133287,117.06574 C 7.6207237,117.25008 7.6294777,117.62096 7.3841607,117.7953 C 6.7949137,118.21406 6.2703977,119.40472 6.8524987,120.22938 C 7.5397107,121.20294 8.7079167,120.80079 9.3124387,120.72547 C 9.8119907,120.66323 10.595013,120.9678 10.883669,122.05218 z" filter="url(#filter3314)" transform="matrix(14.017982,0,0,14.017982,-50.698451,-1624.244)"/><path id="path6657" fill="url(#linearGradient7435)" fill-opacity="1" fill-rule="evenodd" stroke="none" stroke-linecap="butt" stroke-linejoin="miter" stroke-miterlimit="4" stroke-opacity="1" stroke-width=".1" d="M 101.86862,86.681189 C 102.98675,90.881539 103.21741,108.30336 87.403077,116.93886 C 75.616771,123.3748 40.803902,128.65467 16.9362,102.0355 C -7.8242369,74.420785 8.5726658,42.270264 27.010964,26.13823 C 36.610226,17.739639 47.752292,14.34224 51.819652,16.78137 C 56.128709,19.365444 56.251423,24.564434 52.812573,27.008328 C 44.55252,32.878497 37.199863,49.569147 45.359745,61.129215 C 54.993071,74.77656 71.36896,69.13923 79.843138,68.083394 C 86.845848,67.210915 97.822239,71.480373 101.86862,86.681189 z"/><path id="path3342" fill="url(#linearGradient3380)" fill-opacity="1" fill-rule="evenodd" stroke="none" stroke-linecap="butt" stroke-linejoin="miter" stroke-miterlimit="4" stroke-opacity="1" stroke-width=".1" d="M 47.776207,17.21004 C 43.155431,17.483531 35.841621,20.50861 29.564313,25.887871 C 17.75422,36.008433 6.2345644,53.308303 8.0565939,71.687419 C 10.6412,61.354765 22.797105,54.775845 29.906842,47.975442 C 33.802718,33.268336 42.043245,29.0293 54.174994,22.513181 C 53.983369,20.898731 53.100264,19.277691 51.2217,18.174196 C 50.335134,17.653427 49.316475,17.118922 47.776207,17.21004 z" opacity=".913"/><path id="path3331" fill="url(#linearGradient3366)" fill-opacity="1" fill-rule="evenodd" stroke="none" stroke-linecap="butt" stroke-linejoin="miter" stroke-miterlimit="4" stroke-opacity="1" stroke-width=".1" d="M 39.470822,49.84052 C 32.806452,58.762104 36.047654,91.121909 66.361361,86.296016 C 89.624235,82.592605 95.036637,98.669545 98.921921,95.184076 C 99.247558,92.110355 98.680222,88.474791 98.483859,87.737026 C 94.735563,73.656104 84.669022,69.972317 79.20913,70.652612 C 75.357971,71.132445 68.933772,73.334059 62.124716,72.84292 C 54.420941,72.287244 48.87913,69.699989 45.19443,65.679957 C 44.461359,64.880173 39.699355,59.325511 39.470822,49.84052 z" opacity=".97"/><path id="path3382" fill="url(#radialGradient3390)" fill-opacity="1" stroke="none" stroke-dasharray="none" stroke-dashoffset="4.15" stroke-linecap="round" stroke-linejoin="round" stroke-miterlimit="4" stroke-opacity="1" stroke-width=".4" d="M -20.238531,47.667152 A 0.30664441,0.16139179 0 1 1 -20.85182,47.667152 A 0.30664441,0.16139179 0 1 1 -20.238531,47.667152 z" opacity=".97" transform="matrix(14.017982,0,0,14.017982,333.00239,-645.69274)"/><path id="path3392" fill="url(#radialGradient3394)" fill-opacity="1" stroke="none" stroke-dasharray="none" stroke-dashoffset="4.15" stroke-linecap="round" stroke-linejoin="round" stroke-miterlimit="4" stroke-opacity="1" stroke-width=".4" d="M -20.238531,47.667152 A 0.30664441,0.16139179 0 1 1 -20.85182,47.667152 A 0.30664441,0.16139179 0 1 1 -20.238531,47.667152 z" opacity=".97" transform="matrix(31.724905,0,0,31.724905,734.34987,-1439.206)"/><path id="path3434" fill="none" fill-opacity="1" fill-rule="evenodd" stroke="url(#linearGradient3454)" stroke-linecap="butt" stroke-linejoin="miter" stroke-miterlimit="4" stroke-opacity="1" stroke-width=".1" d="M -7.03082,52.330923 C -6.951056,52.630565 -6.934601,53.87339 -8.062747,54.489419 C -8.903546,54.948541 -11.38699,55.325187 -13.089639,53.426259 C -14.855973,51.456305 -13.686268,49.162786 -12.370936,48.011974 C -11.686154,47.412843 -10.891313,47.170491 -10.60116,47.344489 C -10.293765,47.528826 -10.285011,47.899706 -10.530328,48.074046 C -11.119575,48.492809 -11.644091,49.683466 -11.06199,50.508123 C -10.374778,51.481691 -9.206572,51.079541 -8.60205,51.004218 C -8.102498,50.941974 -7.319476,51.24655 -7.03082,52.330923 z" clip-path="url(#clipPath3436)" filter="url(#filter3430)" transform="matrix(14.017982,0,0,14.017982,200.42652,-646.89274)"/><path id="path3707" fill="url(#radialGradient3716)" fill-opacity="1" fill-rule="evenodd" stroke="none" stroke-linecap="butt" stroke-linejoin="miter" stroke-miterlimit="4" stroke-opacity="1" stroke-width=".1" d="M 101.86862,86.681189 C 102.98675,90.881539 103.21741,108.30336 87.403077,116.93886 C 75.616771,123.3748 40.803902,128.65467 16.9362,102.0355 C -7.8242369,74.420785 8.5726658,42.270264 27.010964,26.13823 C 36.610226,17.739639 47.752292,14.34224 51.819652,16.78137 C 56.128709,19.365444 56.251423,24.564434 52.812573,27.008328 C 44.55252,32.878497 37.199863,49.569147 45.359745,61.129215 C 54.993071,74.77656 71.36896,69.13923 79.843138,68.083394 C 86.845848,67.210915 97.822239,71.480373 101.86862,86.681189 z"/><path id="path3705" fill="none" fill-opacity="1" fill-rule="evenodd" stroke="url(#linearGradient3829)" stroke-linecap="butt" stroke-linejoin="miter" stroke-miterlimit="4" stroke-opacity="1" stroke-width=".1" d="M -7.03082,52.330923 C -6.951056,52.630565 -6.934601,53.87339 -8.062747,54.489419 C -8.903546,54.948541 -11.38699,55.325187 -13.089639,53.426259 C -14.855973,51.456305 -13.686268,49.162786 -12.370936,48.011974 C -11.686154,47.412843 -10.891313,47.170491 -10.60116,47.344489 C -10.293765,47.528826 -10.285011,47.899706 -10.530328,48.074046 C -11.119575,48.492809 -11.644091,49.683466 -11.06199,50.508123 C -10.374778,51.481691 -9.206572,51.079541 -8.60205,51.004218 C -8.102498,50.941974 -7.319476,51.24655 -7.03082,52.330923 z" clip-path="url(#clipPath3436)" filter="url(#filter3430)" transform="matrix(14.017982,0,0,14.017982,200.42652,-646.89274)"/><path id="path3730" fill="url(#linearGradient3732)" fill-opacity="1" fill-rule="evenodd" stroke="none" stroke-linecap="butt" stroke-linejoin="miter" stroke-miterlimit="4" stroke-opacity="1" stroke-width=".1" d="M 173.8125,31.34375 C 172.51795,32.255241 171.22848,33.272838 169.96875,34.375 C 153.11131,49.123906 138.11247,78.502909 160.75,103.75 C 182.57134,128.08689 214.41173,123.25913 225.1875,117.375 C 228.10111,115.78401 230.38314,113.86001 232.21875,111.78125 C 231.88063,111.98489 231.54317,112.18079 231.1875,112.375 C 220.41173,118.25913 188.57134,123.08689 166.75,98.75 C 145.07976,74.581707 157.89056,46.627676 173.8125,31.34375 z" clip-path="url(#clipPath3739)" filter="url(#filter3809)" transform="matrix(1.0937783,0,0,1.0937783,-161.74911,-9.2636624)"/><g id="g3849" transform="matrix(1.0182986,0,0,1.0182986,-1.0276848,2.1560013)"><path id="path2396" fill="#000" fill-opacity="1" stroke="#000" stroke-dasharray="none" stroke-dashoffset="4.15" stroke-linecap="round" stroke-linejoin="round" stroke-miterlimit="4" stroke-opacity="1" stroke-width=".137" d="M 115.5,20 A 100,100 0 1 1 -84.5,20 A 100,100 0 1 1 115.5,20 z" filter="url(#filter3138)" opacity=".503" transform="matrix(6.6851042e-2,0,0,6.6851042e-2,66.253963,10.843977)"/><circle id="circle3581_2_" cx="343.999" cy="92" r="36" fill="url(#linearGradient3893)" fill-opacity="1" rx="8.001" ry="8.001" transform="matrix(-0.1846527,4.9477535e-2,-4.9477535e-2,-0.1846527,135.41955,11.726201)"/><circle id="circle4383" cx="343.999" cy="92" r="36" fill="url(#radialGradient3895)" fill-opacity="1" filter="url(#filter3162)" rx="8.001" ry="8.001" transform="matrix(-0.1384895,3.7108134e-2,-3.7108134e-2,-0.1384895,118.40149,11.734245)"/><circle id="circle4776" cx="343.999" cy="92" r="36" fill="none" fill-opacity="1" stroke="url(#linearGradient3897)" stroke-dasharray="none" stroke-miterlimit="4" stroke-opacity="1" stroke-width="6.751" clip-path="url(#clipPath5163)" filter="url(#filter7317)" opacity=".8" rx="8.001" ry="8.001" transform="matrix(-0.1846527,-4.9477535e-2,-4.9477535e-2,0.1846527,135.41955,11.790548)"/><path id="circle16776" fill="url(#linearGradient3899)" fill-opacity="1" d="M 67.3473,5.7672735 C 64.906764,5.7672735 62.867475,7.4906196 62.375953,9.785076 C 63.35569,10.698393 65.214688,11.31472 67.3473,11.31472 C 69.479914,11.31472 71.33891,10.698393 72.318646,9.785076 C 71.827126,7.4906196 69.787834,5.7672735 67.3473,5.7672735 z" opacity=".8"/><path id="path3831" fill="url(#radialGradient3901)" fill-opacity="1" stroke="none" stroke-dasharray="none" stroke-dashoffset="4.15" stroke-linecap="round" stroke-linejoin="round" stroke-miterlimit="4" stroke-opacity="1" stroke-width=".4" d="M 66.106078,10.506776 A 2.3240418,2.8404956 0 1 1 61.457994,10.506776 A 2.3240418,2.8404956 0 1 1 66.106078,10.506776 z" opacity=".97"/></g><g id="g3857" transform="matrix(1.0182986,0,0,1.0182986,-1.0276848,3.1560013)"><path id="path3625" fill="#000" fill-opacity="1" stroke="#000" stroke-dasharray="none" stroke-dashoffset="4.15" stroke-linecap="round" stroke-linejoin="round" stroke-miterlimit="4" stroke-opacity="1" stroke-width=".137" d="M 115.5,20 A 100,100 0 1 1 -84.5,20 A 100,100 0 1 1 115.5,20 z" filter="url(#filter3138)" opacity=".503" transform="matrix(6.6851042e-2,0,0,6.6851042e-2,87.638457,8.3734932)"/><circle id="circle3627" cx="343.999" cy="92" r="36" fill="url(#linearGradient3883)" fill-opacity="1" rx="8.001" ry="8.001" transform="matrix(-0.1846527,4.9477535e-2,-4.9477535e-2,-0.1846527,156.80405,9.2557169)"/><circle id="circle3629" cx="343.999" cy="92" r="36" fill="url(#radialGradient3885)" fill-opacity="1" filter="url(#filter3162)" rx="8.001" ry="8.001" transform="matrix(-0.1384895,3.7108134e-2,-3.7108134e-2,-0.1384895,139.78598,9.263761)"/><circle id="circle3631" cx="343.999" cy="92" r="36" fill="none" fill-opacity="1" stroke="url(#linearGradient3887)" stroke-dasharray="none" stroke-miterlimit="4" stroke-opacity="1" stroke-width="6.751" clip-path="url(#clipPath5163)" filter="url(#filter7317)" opacity=".8" rx="8.001" ry="8.001" transform="matrix(-0.1846527,-4.9477535e-2,-4.9477535e-2,0.1846527,156.80405,9.3200644)"/><path id="path3633" fill="url(#linearGradient3889)" fill-opacity="1" d="M 88.731794,3.2967898 C 86.291258,3.2967898 84.251969,5.0201359 83.760447,7.3145923 C 84.740184,8.2279097 86.599182,8.8442363 88.731794,8.8442363 C 90.864408,8.8442363 92.723404,8.2279097 93.70314,7.3145923 C 93.21162,5.0201359 91.172328,3.2967898 88.731794,3.2967898 z" opacity=".8"/><path id="path3841" fill="url(#radialGradient3891)" fill-opacity="1" stroke="none" stroke-dasharray="none" stroke-dashoffset="4.15" stroke-linecap="round" stroke-linejoin="round" stroke-miterlimit="4" stroke-opacity="1" stroke-width=".4" d="M 66.106078,10.506776 A 2.3240418,2.8404956 0 1 1 61.457994,10.506776 A 2.3240418,2.8404956 0 1 1 66.106078,10.506776 z" opacity=".97" transform="translate(20.450524,-2.9215035)"/></g><g id="g3865" transform="matrix(1.0182986,0,0,1.0182986,-1.0276848,3.1560013)"><path id="path3643" fill="#000" fill-opacity="1" stroke="#000" stroke-dasharray="none" stroke-dashoffset="4.15" stroke-linecap="round" stroke-linejoin="round" stroke-miterlimit="4" stroke-opacity="1" stroke-width=".137" d="M 115.5,20 A 100,100 0 1 1 -84.5,20 A 100,100 0 1 1 115.5,20 z" filter="url(#filter3138)" opacity=".503" transform="matrix(6.6851042e-2,0,0,6.6851042e-2,106.11338,17.288717)"/><circle id="circle3645" cx="343.999" cy="92" r="36" fill="url(#linearGradient3873)" fill-opacity="1" rx="8.001" ry="8.001" transform="matrix(-0.1846527,4.9477535e-2,-4.9477535e-2,-0.1846527,175.27897,18.170941)"/><circle id="circle3647" cx="343.999" cy="92" r="36" fill="url(#radialGradient3875)" fill-opacity="1" filter="url(#filter3162)" rx="8.001" ry="8.001" transform="matrix(-0.1384895,3.7108134e-2,-3.7108134e-2,-0.1384895,158.2609,18.178985)"/><circle id="circle3649" cx="343.999" cy="92" r="36" fill="none" fill-opacity="1" stroke="url(#linearGradient3877)" stroke-dasharray="none" stroke-miterlimit="4" stroke-opacity="1" stroke-width="6.751" clip-path="url(#clipPath5163)" filter="url(#filter7317)" opacity=".8" rx="8.001" ry="8.001" transform="matrix(-0.1846527,-4.9477535e-2,-4.9477535e-2,0.1846527,175.27897,18.235288)"/><path id="path3651" fill="url(#linearGradient3879)" fill-opacity="1" d="M 107.20671,12.212014 C 104.76618,12.212014 102.72689,13.93536 102.23537,16.229816 C 103.2151,17.143134 105.07411,17.75946 107.20671,17.75946 C 109.33933,17.75946 111.19833,17.143134 112.17806,16.229816 C 111.68654,13.93536 109.64725,12.212014 107.20671,12.212014 z" opacity=".8"/><path id="path3845" fill="url(#radialGradient3881)" fill-opacity="1" stroke="none" stroke-dasharray="none" stroke-dashoffset="4.15" stroke-linecap="round" stroke-linejoin="round" stroke-miterlimit="4" stroke-opacity="1" stroke-width=".4" d="M 66.106078,10.506776 A 2.3240418,2.8404956 0 1 1 61.457994,10.506776 A 2.3240418,2.8404956 0 1 1 66.106078,10.506776 z" opacity=".97" transform="translate(39.075109,6.3907889)"/></g></g></svg>