<svg xmlns="http://www.w3.org/2000/svg" xmlns:svg="http://www.w3.org/2000/svg" xmlns:xlink="http://www.w3.org/1999/xlink" id="svg2408" width="96" height="96" version="1.0"><defs id="defs2410"><linearGradient id="linearGradient3907"><stop id="stop3909" offset="0" stop-color="#e1e1e1" stop-opacity="1"/><stop id="stop3911" offset="1" stop-color="#fff" stop-opacity="1"/></linearGradient><linearGradient id="ButtonShadow" x1="45.448" x2="45.448" y1="92.54" y2="7.017" gradientTransform="scale(1.0058652,0.994169)" gradientUnits="userSpaceOnUse"><stop id="stop3750" offset="0" stop-color="#000" stop-opacity="1"/><stop id="stop3752" offset="1" stop-color="#000" stop-opacity=".588"/></linearGradient><linearGradient id="linearGradient3737"><stop id="stop3739" offset="0" stop-color="#fff" stop-opacity="1"/><stop id="stop3741" offset="1" stop-color="#fff" stop-opacity="0"/></linearGradient><linearGradient id="linearGradient3700"><stop id="stop3702" offset="0" stop-color="#57c412" stop-opacity="1"/><stop id="stop3704" offset="1" stop-color="#92d74e" stop-opacity="1"/></linearGradient><filter id="filter3174" color-interpolation-filters="sRGB"><feGaussianBlur id="feGaussianBlur3176" stdDeviation="1.71"/></filter><linearGradient id="linearGradient3188" x1="36.357" x2="36.357" y1="6" y2="81.385" gradientUnits="userSpaceOnUse" xlink:href="#linearGradient3737"/><filter id="filter3794" width="1.384" height="1.384" x="-.192" y="-.192" color-interpolation-filters="sRGB"><feGaussianBlur id="feGaussianBlur3796" stdDeviation="5.28"/></filter><linearGradient id="linearGradient3613" x1="48" x2="48" y1="20.221" y2="138.661" gradientUnits="userSpaceOnUse" xlink:href="#linearGradient3737"/><radialGradient id="radialGradient3619" cx="48" cy="90.172" r="42" fx="48" fy="90.172" gradientTransform="matrix(0.20589266,-0.22253446,0.39766525,0.36792664,2.2589297,67.505019)" gradientUnits="userSpaceOnUse" xlink:href="#linearGradient3737"/><clipPath id="clipPath3613"><rect id="rect3615" width="84" height="84" x="6" y="6" fill="#fff" fill-opacity="1" fill-rule="nonzero" stroke="none" rx="6" ry="6"/></clipPath><linearGradient id="linearGradient3617" x1="48" x2="48" y1="90" y2="69.445" gradientUnits="userSpaceOnUse" xlink:href="#linearGradient3700"/><linearGradient id="ButtonShadow-0" x1="45.448" x2="45.448" y1="92.54" y2="7.017" gradientTransform="matrix(1.0058652,0,0,0.994169,100,0)" gradientUnits="userSpaceOnUse"><stop id="stop3750-8" offset="0" stop-color="#000" stop-opacity="1"/><stop id="stop3752-5" offset="1" stop-color="#000" stop-opacity=".588"/></linearGradient><linearGradient id="linearGradient3780" x1="32.251" x2="32.251" y1="6.132" y2="90.239" gradientTransform="matrix(1.0238095,0,0,1.0119048,-1.1428571,-98.071429)" gradientUnits="userSpaceOnUse" xlink:href="#ButtonShadow-0"/><linearGradient id="linearGradient3772" x1="32.251" x2="32.251" y1="6.132" y2="90.239" gradientTransform="matrix(1.0238095,0,0,1.0119048,-1.1428571,-98.071429)" gradientUnits="userSpaceOnUse" xlink:href="#ButtonShadow-0"/><linearGradient id="linearGradient3725" x1="32.251" x2="32.251" y1="6.132" y2="90.239" gradientTransform="matrix(1.0238095,0,0,1.0119048,-1.1428571,-98.071429)" gradientUnits="userSpaceOnUse" xlink:href="#ButtonShadow-0"/><linearGradient id="linearGradient3721" x1="32.251" x2="32.251" y1="6.132" y2="90.239" gradientTransform="translate(0,-97)" gradientUnits="userSpaceOnUse" xlink:href="#ButtonShadow-0"/><linearGradient id="linearGradient3026" x1="32.251" x2="32.251" y1="6.132" y2="90.239" gradientTransform="matrix(1.0238095,0,0,1.0119048,-1.1428571,-98.071429)" gradientUnits="userSpaceOnUse" xlink:href="#ButtonShadow-0"/><linearGradient id="linearGradient3913" x1="48" x2="48" y1="67.218" y2="28.782" gradientUnits="userSpaceOnUse" xlink:href="#linearGradient3907"/><linearGradient id="linearGradient3022" x1="10.916" x2="10.916" y1="14.01" y2="18.908" gradientTransform="matrix(2.3340955,0,0,2.0797356,-1.8209963,2.8226078)" gradientUnits="userSpaceOnUse" xlink:href="#linearGradient5671"/><linearGradient id="linearGradient5677" x1="10.916" x2="10.916" y1="14.01" y2="18.908" gradientTransform="matrix(2.3340955,0,0,2.0797356,-1.8209963,2.8226078)" gradientUnits="userSpaceOnUse" xlink:href="#linearGradient5671"/><linearGradient id="linearGradient5671"><stop id="stop5673" offset="0" stop-color="#729fcf" stop-opacity="1"/><stop id="stop5675" offset="1" stop-color="#3465a4" stop-opacity="1"/></linearGradient><linearGradient id="linearGradient3037" x1="48" x2="48" y1="90" y2="69.445" gradientUnits="userSpaceOnUse" xlink:href="#linearGradient3700"/><linearGradient id="linearGradient3039" x1="36.357" x2="36.357" y1="6" y2="81.385" gradientUnits="userSpaceOnUse" xlink:href="#linearGradient3737"/><radialGradient id="radialGradient3041" cx="48" cy="90.172" r="42" fx="48" fy="90.172" gradientTransform="matrix(0.20589266,-0.22253446,0.39766525,0.36792664,2.2589297,67.505019)" gradientUnits="userSpaceOnUse" xlink:href="#linearGradient3737"/><linearGradient id="linearGradient3043" x1="48" x2="48" y1="90" y2="69.445" gradientUnits="userSpaceOnUse" xlink:href="#linearGradient3700"/><linearGradient id="linearGradient3043-1" x1="48" x2="48" y1="90" y2="69.445" gradientUnits="userSpaceOnUse" xlink:href="#linearGradient3700-5"/><linearGradient id="linearGradient3700-5"><stop id="stop3702-4" offset="0" stop-color="#57c412" stop-opacity="1"/><stop id="stop3704-8" offset="1" stop-color="#92d74e" stop-opacity="1"/></linearGradient><linearGradient id="linearGradient3828" x1="48" x2="48" y1="90" y2="69.445" gradientTransform="translate(-93.267206,-5.445972)" gradientUnits="userSpaceOnUse" xlink:href="#linearGradient3700-5"/><linearGradient id="linearGradient3861" x1="48" x2="48" y1="90" y2="69.445" gradientUnits="userSpaceOnUse" xlink:href="#linearGradient3700"/></defs><metadata id="metadata2413"/><g id="layer2" display="none"><rect id="rect3745" width="86" height="85" x="5" y="7" fill="url(#ButtonShadow)" fill-opacity="1" fill-rule="nonzero" stroke="none" filter="url(#filter3174)" opacity=".9" rx="6" ry="6"/></g><g id="g3857" transform="matrix(0.95546559,0,0,0.92534381,108.45083,7.1745862)"><g id="layer1" transform="matrix(1.1961259,0,0,1.2324455,-120.3632,-14.818402)"><rect id="rect2419" width="84" height="84" x="6" y="6" fill="url(#linearGradient3861)" fill-opacity="1" fill-rule="nonzero" stroke="none" rx="0" ry="6"/></g></g><g id="layer5"><rect id="rect3171" width="66" height="66" x="15" y="15" fill="url(#linearGradient3613)" fill-opacity="1" fill-rule="nonzero" stroke="#fff" stroke-dasharray="none" stroke-dashoffset="0" stroke-linecap="round" stroke-linejoin="miter" stroke-miterlimit="4" stroke-opacity="1" stroke-width=".5" clip-path="url(#clipPath3613)" filter="url(#filter3794)" opacity=".1" rx="33" ry="12"/></g><g id="g3849"><g id="layer1-9" fill="#cfa" transform="matrix(1.5869786,0,0,1.5869786,11.323738,8.0318058)"><path id="path5070" fill="#cfa" fill-opacity="1" fill-rule="evenodd" stroke="#fffdff" stroke-linecap="butt" stroke-linejoin="miter" stroke-opacity="1" stroke-width="1" d="M 3.033391,11.648109 24.671136,24.418378 3.016816,37.198431 3.033391,11.648109 z"/><path id="path5665" fill="#cfa" stroke="#eeeeec" stroke-linecap="butt" stroke-linejoin="miter" stroke-opacity="1" stroke-width="1" d="M 4.04192,13.453223 22.5645,24.420891 4.027734,35.311401 4.04192,13.453223 z" opacity=".181"/><path id="path5691" fill="#cfa" stroke="#fff" stroke-linecap="round" stroke-linejoin="miter" stroke-opacity="1" stroke-width="1" d="m 33.305222,17.049165 c 0,0 2.779731,2.878431 2.779731,7.220514 0,4.27587 -2.514994,7.220514 -2.514994,7.220514" opacity=".324"/><path id="path5067" fill="#cfa" fill-opacity="1" stroke="#fff" stroke-dasharray="none" stroke-dashoffset="0" stroke-linecap="round" stroke-linejoin="round" stroke-miterlimit="4" stroke-opacity="1" stroke-width="1" d="m 44.983184,24.545684 c 0,-11.316001 -9.170001,-20.5 -20.46875,-20.5 -6.524212,0 -12.313471,3.0771446 -16.0625,7.84375 l 2.5625,1.625 c 3.198502,-3.9147617 8.085497,-6.40625 13.53125,-6.40625 9.625499,-10e-8 17.4375,7.812 17.4375,17.4375 0,9.6255 -7.812,17.4375 -17.4375,17.4375 -5.430049,0 -10.301145,-2.47967 -13.5,-6.375 l -2.5625,1.625 c 3.749919,4.746873 9.522794,7.8125 16.03125,7.8125 11.29875,0 20.46875,-9.183999 20.46875,-20.5 z"/><path id="path5648" fill="#cfa" fill-opacity="1" stroke="#fffdff" stroke-dasharray="none" stroke-dashoffset="0" stroke-linecap="round" stroke-linejoin="round" stroke-miterlimit="4" stroke-opacity="1" stroke-width="1" d="m 37.045684,24.576934 c 0,-6.91725 -5.614001,-12.53125 -12.53125,-12.53125 -3.682751,0 -6.987847,1.592947 -9.28125,4.125 l 2.65625,1.65625 c 1.708502,-1.687387 4.044211,-2.71875 6.625,-2.71875 5.226749,0 9.46875,4.27 9.46875,9.53125 0,5.261251 -4.242001,9.53125 -9.46875,9.53125 -2.628895,10e-7 -5.002549,-1.069255 -6.71875,-2.8125 l -2.5625,1.625 c 2.293403,2.532054 5.598499,4.125001 9.28125,4.125 6.91725,0 12.53125,-5.614 12.53125,-12.53125 z"/></g></g></svg>