<svg xmlns="http://www.w3.org/2000/svg" xmlns:cc="http://web.resource.org/cc/" xmlns:svg="http://www.w3.org/2000/svg" id="svg2" width="240" height="120" x="0" y="0" version="1.0"><metadata id="metadata1296"/><g id="layer1" transform="translate(0.000000,-932.3622)"><path id="path1366" fill="#010101" d="M 0.0000000,971.36227 L 26.999997,971.36227 L 26.999997,1025.3623 L 54.000004,1025.3623 L 54.000004,971.28555 L 81.310128,971.28555 L 81.310128,1025.3623 L 108.00001,1025.3623 L 108.00001,971.36227 L 240.00000,971.36227 L 240.00000,1052.3622 L 213.00001,1052.3622 L 213.00001,998.36218 L 186.00001,998.36218 L 186.00001,1052.3622 L 159.00001,1052.3622 L 159.00001,998.46222 L 132.01646,998.46222 L 132.01646,1052.3622 L 0.0000000,1052.3622 L 0.0000000,971.36227 z M 159.00001,932.36216 L 186.00001,932.36216 L 186.00001,959.36220 L 159.00001,959.36220 L 159.00001,932.36216 z M 213.00001,932.36216 L 240.00000,932.36216 L 240.00000,959.36220 L 213.00001,959.36220 L 213.00001,932.36216 z"/></g></svg>