<svg xmlns="http://www.w3.org/2000/svg" xmlns:svg="http://www.w3.org/2000/svg" xmlns:xlink="http://www.w3.org/1999/xlink" id="svg586" width="760" height="760" version="1.1"><title id="title3704">XFCE 4 Logo</title><metadata id="metadata12"/><defs id="defs588"><linearGradient id="linearGradient3694"><stop id="stop3702" offset="0" stop-color="#b7b7b7" stop-opacity="1"/><stop id="stop3698" offset="1" stop-color="#000" stop-opacity="1"/></linearGradient><linearGradient id="linearGradient3990"><stop id="stop3992" offset="0" stop-color="#fff" stop-opacity="1"/><stop id="stop3994" offset=".493" stop-color="#7fd4ee" stop-opacity="1"/><stop id="stop3996" offset="1" stop-color="#00aade" stop-opacity="1"/></linearGradient><linearGradient id="linearGradient3982"><stop id="stop3984" offset="0" stop-color="#fff" stop-opacity="1"/><stop id="stop3986" offset=".523" stop-color="#7fd4ee" stop-opacity="1"/><stop id="stop3988" offset="1" stop-color="#00aade" stop-opacity="1"/></linearGradient><linearGradient id="linearGradient3795"><stop id="stop3797" offset="0" stop-color="#fff" stop-opacity="1"/><stop id="stop3799" offset=".499" stop-color="#7fd4ee" stop-opacity="1"/><stop id="stop3801" offset="1" stop-color="#00aade" stop-opacity="1"/></linearGradient><linearGradient id="linearGradient3743"><stop id="stop3745" offset="0" stop-color="#fff" stop-opacity="1"/><stop id="stop3751" offset=".546" stop-color="#7fd4ee" stop-opacity="1"/><stop id="stop3747" offset="1" stop-color="#00aade" stop-opacity="1"/></linearGradient><linearGradient id="linearGradient3652"><stop id="stop3654" offset="0" stop-color="#fff" stop-opacity="1"/><stop id="stop3662" offset=".499" stop-color="#d5e2ec" stop-opacity="1"/><stop id="stop3656" offset="1" stop-color="#d5e2ec" stop-opacity="1"/></linearGradient><filter id="filter3729" color-interpolation-filters="sRGB"><feGaussianBlur id="feGaussianBlur3731" stdDeviation="6.415"/></filter><linearGradient id="linearGradient3737" x1="965.026" x2="1557.867" y1="17.49" y2="663.809" gradientTransform="translate(-1581.6355,147.78233)" gradientUnits="userSpaceOnUse" xlink:href="#linearGradient3652"/><filter id="filter3911" color-interpolation-filters="sRGB"><feGaussianBlur id="feGaussianBlur3913" stdDeviation="4.744"/></filter><linearGradient id="linearGradient3966" x1="33.527" x2="107.856" y1="441.981" y2="531.032" gradientUnits="userSpaceOnUse" xlink:href="#linearGradient3743"/><linearGradient id="linearGradient3968" x1="245.517" x2="305.392" y1="426.952" y2="531.49" gradientUnits="userSpaceOnUse" xlink:href="#linearGradient3982"/><linearGradient id="linearGradient3970" x1="601.535" x2="668.818" y1="434.948" y2="543.358" gradientUnits="userSpaceOnUse" xlink:href="#linearGradient3795"/><linearGradient id="linearGradient3972" x1="440.521" x2="486.955" y1="455.933" y2="535.305" gradientUnits="userSpaceOnUse" xlink:href="#linearGradient3990"/><linearGradient id="linearGradient3700" x1="14.69" x2="385.592" y1="99.352" y2="268.436" gradientUnits="userSpaceOnUse" xlink:href="#linearGradient3694"/></defs><g id="g3733" transform="translate(754.35152,-70.104999)"><path id="path2870-8" fill="#000" fill-opacity="1" stroke="none" d="M -690.3671,231.76247 -535.89668,88.530764 -361.32418,303.30745 -172.75078,88.081185 -27.666178,221.31553 -236.40038,435.40777 -22.543078,663.49077 -177.64918,807.89088 -374.21168,579.61811 -571.06778,810.83624 -711.17795,672.17796 -496.29398,442.77473 -690.3671,231.76247 z" filter="url(#filter3729)"/><path id="path2870" fill="url(#linearGradient3737)" fill-opacity="1" stroke="none" d="M -692.09302,232.01783 -537.6226,88.786116 -363.0501,303.5628 -174.4767,88.336537 -29.392112,221.57089 -238.1263,435.66312 -24.269012,663.74612 -179.3751,808.14623 -375.9376,579.87346 -572.7937,811.09159 -712.90387,672.43331 -498.0199,443.03008 -692.09302,232.01783 z"/></g><path id="path602" fill="url(#linearGradient3700)" fill-opacity="1" fill-rule="evenodd" stroke="#000" stroke-width="1pt" d="m 578.95242,260.83413 c -10.6972,-2.13059 -43.0693,17.59545 -40.7203,19.58198 3.3216,2.80846 45.8033,-18.46915 40.7203,-19.58198 z m -52.4616,-22.76798 c 9.7256,4.57656 23.9505,-3.04948 21.5356,-3.31969 -20.9961,-2.32829 -24.602,-12.15365 -27.8106,-21.78036 -3.1088,-3.21706 -3.7584,19.48502 6.275,25.10005 z m 27.2721,-24.90704 c 0,6.11872 -4.5559,11.57087 -10.4063,11.57087 -5.8504,0 -10.7932,-5.45215 -10.7932,-11.57087 0,-6.11967 4.7498,-11.08601 10.5993,-11.08601 5.8504,0 10.6002,4.96634 10.6002,11.08601 z M 16.830715,101.12157 c -2.35669,-3.997264 15.58448,3.17565 29.05852,10.7025 13.47403,7.52685 49.985924,21.60509 61.047785,23.84455 28.58402,5.78679 94.85551,39.52509 137.9312,84.53798 5.4136,5.38436 20.2097,-17.5752 53.4956,-11.90368 9.5693,0.90382 86.6573,21.41977 118.7017,15.33494 10.9566,-6.90757 10.811,-25.64181 21.294,-33.99019 -0.045,-7.07151 -6.073,-29.85029 -6.1323,-34.68482 -0.3503,-16.82907 15.4145,-25.1292 19.9543,-24.19337 4.7395,1.20982 12.2512,-0.11099 29.2497,41.49049 5.0401,7.79677 12.7941,10.90414 11.9936,3.4595 -9.3761,-29.08315 -16.0192,-60.12065 6.1068,-63.22946 3.0641,0.0175 24.213,-10.52798 29.5887,33.11224 0.9378,6.4473 0.7043,24.60284 1.0894,31.13111 0.7343,5.64798 56.407,-1.77691 110.8588,33.83671 6.3485,3.81868 33.2962,31.20317 7.0146,52.93834 -17.6292,14.61977 -94.1169,52.30301 -99.2329,55.89667 -2.9153,1.99768 -5.6605,10.67769 -1.7876,17.93673 4.8336,9.05946 7.0601,6.16487 22.9967,25.86911 15.9366,19.70424 12.4882,28.91559 -12.7823,22.47304 -8.4481,-2.15378 -30.2355,-13.56174 -39.1523,-10.41058 -4.1726,1.47531 20.7937,25.42635 24.1755,34.89489 11.2088,29.97693 -26.8266,13.89202 -40.7086,7.27877 -13.8819,-6.61325 -37.9592,-20.71994 -46.5061,-21.1775 -16.6061,7.12261 -106.3316,14.98212 -186.0765,-3.92696 -4.8543,1.30866 -45.30917,41.92479 -48.29086,43.46789 -24.97509,7.89371 -5.71027,-29.39652 -1.70225,-44.84886 1.96735,-7.58485 -3.52587,-3.01681 -8.25935,-0.30866 -2.22884,1.27516 -17.01855,7.16442 -26.44472,2.867 -9.42617,-4.29742 20.26264,-34.27865 23.45899,-38.98797 4.41091,-5.55147 -13.29944,-57.40637 24.08701,-116.75771 -3.81209,-6.91805 -52.37384,-47.82933 -88.34617,-67.86888 -33.99333,-19.37581 -116.096985,-56.27571 -118.320405,-58.83561 -3.56692,-2.53825 -13.68108,-9.7552 -8.36055,-9.94821 z M 585.18692,273.88598 c -9.0091,-0.67034 -31.1383,23.04481 -28.7893,25.03135 3.3225,2.80846 33.2632,-24.68771 28.7893,-25.03135 z m 76.2504,-120.12921 c -1.1712,-3.09832 -28.8917,31.85639 -24.0061,44.70613 2.1316,5.60635 27.6885,-34.96468 24.0061,-44.70613 z m -29.8887,-5.48954 c -10.362,10.1444 -8.4828,47.59565 -6.2189,47.1794 10.6101,-1.95078 9.3483,-50.24308 6.2189,-47.1794 z"/></svg>