<svg xmlns="http://www.w3.org/2000/svg" xmlns:cc="http://web.resource.org/cc/" xmlns:svg="http://www.w3.org/2000/svg" id="svg2211" width="47" height="73" version="1.0"><metadata id="metadata2216"/><g id="g3208" transform="translate(-44.5178, 4.09673)"><g id="g3212" transform="matrix(1.02161, 0, 0, 1.0127, 45.5337, -4.35777)"><path id="text2220" fill="#AEAEAE" fill-opacity="1" stroke="none" stroke-linecap="butt" stroke-linejoin="miter" stroke-opacity="1" stroke-width="1" d="M 22.62043,20.307707 L 36.04778,0.32867349 L 43.859402,0.32867349 L 26.580238,26.139425 L 22.080456,31.215179 L 6.8531925,54.074074 L -0.9944279,54.074074 L 18.192644,25.383462" font-family="Bitstream Vera Sans" font-size="73.724" font-style="normal" font-weight="normal"/><path id="path3206" fill="#000" fill-opacity="1" stroke="none" stroke-linecap="butt" stroke-linejoin="miter" stroke-opacity="1" stroke-width="1" d="M 1.4534537,0.32867349 L 9.2650758,0.32867349 L 45.011347,54.074074 L 37.199725,54.074074 L 22.080456,31.215179 L 6.8531925,54.074074 L -0.9944279,54.074074 L 18.192644,25.383462 L 1.4534537,0.32867349" font-family="Bitstream Vera Sans" font-size="73.724" font-style="normal" font-weight="normal"/></g><path id="text3216" fill="#EE0A00" fill-opacity="1" stroke="none" stroke-linecap="butt" stroke-linejoin="miter" stroke-opacity="1" stroke-width="1" d="M 44.517797,65.480602 L 55.836194,59.828049 L 44.517797,54.228655 L 44.517797,51.056847 L 58.809298,58.321883 L 58.809298,61.298776 L 44.517797,68.652411 M 44.517797,68.652411 L 44.517797,65.480602 M 73.929389,61.298776 L 59.637889,68.652411 L 59.637889,65.480602 L 70.956287,59.828049 L 59.637889,54.228655 L 59.637889,51.056847 L 73.929389,58.321883 L 73.929389,61.298776 z M 91.517797,57.382744 L 77.270452,57.382744 L 77.270452,54.405851 L 91.517797,54.405851 L 91.517797,57.382744 z M 91.517797,65.267967 L 77.270452,65.267967 L 77.270452,62.291073 L 91.517797,62.291073 L 91.517797,65.267967 z" font-family="Bitstream Vera Sans Mono" font-size="28.207" font-stretch="normal" font-style="normal" font-variant="normal" font-weight="normal" text-anchor="start" style="text-align:start;line-height:125%"/></g></svg>