<svg xmlns="http://www.w3.org/2000/svg" xmlns:cc="http://web.resource.org/cc/" xmlns:svg="http://www.w3.org/2000/svg" xmlns:xlink="http://www.w3.org/1999/xlink" id="svg2" width="1280" height="1024" version="1.0"><defs id="defs4"><linearGradient id="linearGradient5390"><stop id="stop5392" offset="0" stop-color="#262729" stop-opacity="1"/><stop id="stop5394" offset="1" stop-color="#262729" stop-opacity=".8"/></linearGradient><linearGradient id="linearGradient5396" x1="475" x2="1174" y1="273" y2="662" gradientUnits="userSpaceOnUse" xlink:href="#linearGradient5390"/></defs><metadata id="metadata7"/><g id="layer1" display="none"><rect id="rect2160" width="600" height="256" x="470" y="268" fill="#fefefe" fill-opacity="1" fill-rule="nonzero" stroke="none" stroke-dasharray="none" stroke-dashoffset="25" stroke-linecap="round" stroke-linejoin="round" stroke-miterlimit="4" stroke-opacity=".2" stroke-width="10" opacity="1" rx="0" ry="0"/><rect id="rect3136" width="590" height="196" x="475" y="273" fill="url(#linearGradient5396)" fill-opacity="1" fill-rule="nonzero" stroke="none" stroke-dasharray="none" stroke-dashoffset="25" stroke-linecap="round" stroke-linejoin="round" stroke-miterlimit="4" stroke-opacity=".2" stroke-width="10" opacity="1" rx="0" ry="0"/><rect id="rect6047" width="202.027" height="24.213" x="-1064.996" y="-493.213" fill="#e04613" fill-opacity="1" fill-rule="nonzero" stroke="none" stroke-dasharray="none" stroke-dashoffset="25" stroke-linecap="round" stroke-linejoin="round" stroke-miterlimit="4" stroke-opacity=".2" stroke-width="10" opacity="1" rx="0" ry="0" transform="scale(-1,-1)"/><rect id="rect7995" width="394.5" height="34.5" x="660.25" y="309.25" fill="#fff" fill-opacity="1" fill-rule="nonzero" stroke="#909090" stroke-dasharray="none" stroke-dashoffset="25" stroke-linecap="round" stroke-linejoin="round" stroke-miterlimit="4" stroke-opacity="1" stroke-width=".5" opacity="1"/><rect id="rect5076" width="387.969" height="24.213" x="475" y="-493.213" fill="#6c9eab" fill-opacity="1" fill-rule="nonzero" stroke="none" stroke-dasharray="none" stroke-dashoffset="25" stroke-linecap="round" stroke-linejoin="round" stroke-miterlimit="4" stroke-opacity=".2" stroke-width="10" opacity="1" rx="0" ry="0" transform="scale(1,-1)"/><rect id="rect8991" width="152.735" height="255.973" x="494.469" y="268.224" fill="#e04613" fill-opacity="1" fill-rule="nonzero" stroke="none" stroke-dasharray="none" stroke-dashoffset="25" stroke-linecap="round" stroke-linejoin="round" stroke-miterlimit="4" stroke-opacity=".2" stroke-width="10" opacity="1"/><rect id="rect3235" width="394.5" height="5.5" x="660.25" y="-348.25" fill="#e04613" fill-opacity="1" fill-rule="nonzero" stroke="none" stroke-dasharray="none" stroke-dashoffset="25" stroke-linecap="round" stroke-linejoin="round" stroke-miterlimit="4" stroke-opacity="1" stroke-width=".5" opacity="1" transform="scale(1,-1)"/><text id="text3237" x="585.887" y="481.104" fill="#000" fill-opacity="1" stroke="none" stroke-linecap="butt" stroke-linejoin="miter" stroke-opacity="1" stroke-width="1" font-family="Boston Traffic" font-size="32.358" font-style="normal" font-weight="normal" transform="scale(0.9835399,1.0167355)" xml:space="preserve"><tspan id="tspan3239" x="585.887" y="481.104" fill="#e88f2e" fill-opacity="1">gnu</tspan></text><text id="text3241" x="564.289" y="507.048" fill="#fff" fill-opacity="1" stroke="none" stroke-linecap="butt" stroke-linejoin="miter" stroke-opacity="1" stroke-width="1" font-family="Boston Traffic" font-size="32.358" font-style="normal" font-weight="normal" transform="scale(0.9835399,1.0167355)" xml:space="preserve"><tspan id="tspan3247" x="564.289" y="507.048" fill="#fff" fill-opacity="1">linux.</tspan></text></g><g id="layer3" display="none"><path id="path4490" fill="#fff" fill-opacity="1" fill-rule="nonzero" stroke="none" stroke-dasharray="none" stroke-miterlimit="4" stroke-opacity="1" stroke-width="1" d="M 607.30142,314 C 586.20611,314 582.24893,344.86505 594.11621,344.86505 C 605.98178,344.86505 628.39759,314 607.30142,314 z" display="inline"/><path id="path4492" fill="#fff" fill-opacity="1" fill-rule="nonzero" stroke="none" stroke-dasharray="none" stroke-miterlimit="4" stroke-opacity="1" stroke-width="1" d="M 572.35801,340.1123 C 578.72044,340.47639 585.70102,317.36044 573.74293,318.81428 C 561.78913,320.26812 565.99302,339.74824 572.35801,340.1123 z" display="inline"/><path id="path4494" fill="#fff" fill-opacity="1" fill-rule="nonzero" stroke="none" stroke-dasharray="none" stroke-miterlimit="4" stroke-opacity="1" stroke-width="1" d="M 542.81152,356.52002 C 547.33662,354.44815 543.39432,334.1828 535.69969,339.70961 C 528.0085,345.23735 538.28644,358.59102 542.81152,356.52002 z" display="inline"/><path id="path4496" fill="#fff" fill-opacity="1" fill-rule="nonzero" stroke="none" stroke-dasharray="none" stroke-miterlimit="4" stroke-opacity="1" stroke-width="1" d="M 555.56137,344.81431 C 560.94813,343.76188 561.24341,322.58772 551.63721,326.38619 C 542.02928,330.18551 550.17894,345.86837 555.56137,344.81431 L 555.56137,344.81431 z" display="inline"/><path id="path4498" fill="#fff" fill-opacity="1" fill-rule="nonzero" stroke="none" stroke-dasharray="none" stroke-miterlimit="4" stroke-opacity="1" stroke-width="1" d="M 584.15713,395.40632 C 585.12308,402.5933 578.74525,406.14256 572.49916,401.50939 C 552.61516,386.76055 605.42155,379.40353 601.94074,359.253 C 599.05155,342.52761 546.37693,347.67683 540.37867,373.84626 C 536.31846,391.5476 557.09161,416.10435 578.76704,416.10435 C 589.43025,416.10435 601.72957,406.72406 604.03063,394.84099 C 605.78804,385.77949 583.35084,389.41038 584.15713,395.40632 L 584.15713,395.40632 z" display="inline"/></g><g id="layer4" display="none"><text id="text7018" x="882.463" y="486.683" fill="#fff" fill-opacity="1" stroke="none" stroke-linecap="butt" stroke-linejoin="miter" stroke-opacity="1" stroke-width="1" font-family="Boston Traffic" font-size="15.742" font-style="normal" font-weight="normal" xml:space="preserve"><tspan id="tspan7022" x="882.463" y="486.683">2008-02-26 22:00:06</tspan></text><text id="text7997" x="659.962" y="300.565" fill="#e04613" fill-opacity="1" stroke="none" stroke-linecap="butt" stroke-linejoin="miter" stroke-opacity="1" stroke-width="1" font-family="Boston Traffic" font-size="22.353" font-style="normal" font-weight="normal" xml:space="preserve"><tspan id="tspan8005" x="659.962" y="300.565">Your s login here</tspan></text></g><g id="layer2" display="inline"><path id="path2160" fill="none" fill-opacity="1" fill-rule="nonzero" stroke="#fff" stroke-dasharray="none" stroke-dashoffset="25" stroke-linecap="round" stroke-linejoin="round" stroke-miterlimit="4" stroke-opacity="1" stroke-width="8.628" d="M 225.26402,549.30621 A 45.456863,45.456863 0 1 1 202.53559,509.93942" opacity="1" transform="matrix(0.1767418,-0.2961944,0.3061256,0.1710078,837.49481,401.27449)"/><path id="path3134" fill="none" fill-rule="evenodd" stroke="#fff" stroke-dasharray="none" stroke-linecap="round" stroke-linejoin="round" stroke-miterlimit="4" stroke-opacity="1" stroke-width="3" d="M 1037.2467,446.61896 L 1037.2467,425.50004"/><path id="path3136" fill="none" fill-opacity="1" fill-rule="nonzero" stroke="#fff" stroke-dasharray="none" stroke-dashoffset="25" stroke-linecap="round" stroke-linejoin="round" stroke-miterlimit="4" stroke-opacity="1" stroke-width="8.251" d="M 135.8992,537.54111 A 45.456863,45.456863 0 0 1 202.53559,509.93942" opacity="1" transform="matrix(0.1844403,-0.3103773,0.31946,0.1791964,788.54358,400.29234)"/><path id="path3138" fill="#fff" fill-opacity="1" fill-rule="nonzero" stroke="none" stroke-dasharray="none" stroke-dashoffset="25" stroke-linecap="round" stroke-linejoin="round" stroke-miterlimit="4" stroke-opacity="1" stroke-width="11.526" d="M 374.28571,572.47233 C 375.28975,572.47233 348.39922,528.29127 348.90124,529.16079 C 349.40326,530.03032 324.5866,484.65191 324.08458,485.52143 C 323.58256,486.39096 375.28975,485.19361 374.28571,485.19361 C 373.28166,485.19361 424.98885,486.39096 424.48683,485.52143 C 423.98481,484.6519 399.16815,530.03032 399.67017,529.1608 C 400.17219,528.29127 373.28166,572.47233 374.28571,572.47233 z" opacity="1" transform="matrix(-3.1782711e-2,-4.7995183e-2,0.123465,-7.7176356e-2,937.90683,486.14561)"/><path id="path3140" fill="none" fill-opacity="1" fill-rule="nonzero" stroke="#fff" stroke-dasharray="none" stroke-dashoffset="25" stroke-linecap="round" stroke-linejoin="round" stroke-miterlimit="4" stroke-opacity="1" stroke-width="8.251" d="M 135.8992,537.54111 A 45.456863,45.456863 0 0 1 202.53559,509.93942" opacity="1" transform="matrix(-0.1844402,0.3103773,-0.31946,-0.1791964,1200.2413,482.43195)"/><path id="path3142" fill="#fff" fill-opacity="1" fill-rule="nonzero" stroke="none" stroke-dasharray="none" stroke-dashoffset="25" stroke-linecap="round" stroke-linejoin="round" stroke-miterlimit="4" stroke-opacity="1" stroke-width="11.526" d="M 374.28571,572.47233 C 375.28975,572.47233 348.39922,528.29127 348.90124,529.16079 C 349.40326,530.03032 324.5866,484.65191 324.08458,485.52143 C 323.58256,486.39096 375.28975,485.19361 374.28571,485.19361 C 373.28166,485.19361 424.98885,486.39096 424.48683,485.52143 C 423.98481,484.6519 399.16815,530.03032 399.67017,529.1608 C 400.17219,528.29127 373.28166,572.47233 374.28571,572.47233 z" opacity="1" transform="matrix(3.1782705e-2,4.7995147e-2,-0.123465,7.7176356e-2,1050.878,396.57869)"/><rect id="rect3144" width="23.554" height="22.986" x="944.808" y="434.514" fill="none" fill-opacity="1" fill-rule="nonzero" stroke="#fff" stroke-dasharray="none" stroke-dashoffset="25" stroke-linecap="round" stroke-linejoin="round" stroke-miterlimit="4" stroke-opacity="1" stroke-width="3" opacity="1" rx="4.248" ry="4.145"/><path id="path3146" fill="none" fill-opacity="1" fill-rule="nonzero" stroke="#fff" stroke-dasharray="none" stroke-dashoffset="25" stroke-linecap="round" stroke-linejoin="round" stroke-miterlimit="4" stroke-opacity="1" stroke-width="7.945" d="M 381.69662,510.12729 A 25.506351,25.506351 0 0 1 428.42301,503.97564" opacity="1" transform="matrix(0.3706318,-9.1291793e-2,9.3550954e-2,0.3616815,757.62903,285.21822)"/><path id="rect3152" fill="none" fill-opacity="1" fill-rule="nonzero" stroke="#fff" stroke-dasharray="none" stroke-dashoffset="25" stroke-linecap="round" stroke-linejoin="round" stroke-miterlimit="4" stroke-opacity="1" stroke-width="2.5" d="M 915.21199,425.25 C 912.96905,425.25 911.15853,426.98876 911.15853,429.15641 L 911.15853,431.83038 L 918.14957,431.83038 C 920.39252,431.83038 922.20303,433.56915 922.20303,435.73679 L 922.20303,446.93884 L 929.55851,446.93884 C 931.80139,446.93884 933.61189,445.20008 933.61189,443.03242 L 933.61189,429.15641 C 933.61189,426.98877 931.80139,425.25 929.55851,425.25 L 915.21199,425.25 z" opacity="1"/><path id="rect3154" fill="none" fill-opacity="1" fill-rule="nonzero" stroke="#fff" stroke-dasharray="none" stroke-dashoffset="25" stroke-linecap="round" stroke-linejoin="round" stroke-miterlimit="4" stroke-opacity="1" stroke-width="2.5" d="M 922.14607,450.28405 C 922.09177,450.58998 921.99577,450.88748 921.87283,451.16437 L 929.55851,451.16437 C 931.80139,451.16437 933.61189,451.09914 933.61189,451.01032 L 933.61189,450.4381 C 933.61189,450.34927 931.80139,450.28405 929.55851,450.28405 L 922.14607,450.28405 z" opacity="1"/><rect id="rect3148" width="22.451" height="21.698" x="899.749" y="431.827" fill="none" fill-opacity="1" fill-rule="nonzero" stroke="#fff" stroke-dasharray="none" stroke-dashoffset="25" stroke-linecap="round" stroke-linejoin="round" stroke-miterlimit="4" stroke-opacity="1" stroke-width="2.5" opacity="1" rx="4.049" ry="3.913"/><rect id="rect3150" width="22.451" height=".889" x="899.749" y="456.861" fill="none" fill-opacity="1" fill-rule="nonzero" stroke="#fff" stroke-dasharray="none" stroke-dashoffset="25" stroke-linecap="round" stroke-linejoin="round" stroke-miterlimit="4" stroke-opacity="1" stroke-width="2.5" opacity="1" rx="4.049" ry=".16"/></g></svg>