<svg xmlns="http://www.w3.org/2000/svg" xmlns:svg="http://www.w3.org/2000/svg" id="svg7384" width="16" height="16" version="1.1"><metadata id="metadata90"/><title id="title9167">Gnome Symbolic Icon Theme</title><g id="layer11" fill="#dcdcdc" fill-opacity="1" opacity="1" transform="matrix(1.0639504,0,0,1.0639504,-322.43464,-691.08929)"><path id="rect7213" fill="#dcdcdc" fill-opacity="1" d="m 307.72,651.26 c -3.5822,0 -4.6658,1.3998 -4.6658,1.3998 v 10.049 c 0,0 1.0836,-1.0767 4.6658,-1.0767 2.9161,0 4.4722,1.0767 7.1782,1.0767 2.0892,0 3.1943,-1.3998 3.1943,-1.3998 V 651.26 c 0,0 -1.141,1.0408 -3.2302,1.0408 -3.3734,0 -3.9762,-1.0408 -7.1423,-1.0408 z m 2.9314,2.7715 c 1.3288,0 2.375,1.0804 2.375,2.4375 0,1.3571 -1.0462,2.4688 -2.375,2.4688 -1.3288,0 -2.4062,-1.1116 -2.4062,-2.4688 0,-1.3571 1.0775,-2.4375 2.4062,-2.4375 z m -4.5625,0.96875 0.96875,1.0312 -0.9375,-0.0312 0.9375,1 -0.96875,-0.0312 0.96875,1.0312 -1,-0.0312 0.0312,-1 h -0.0312 l 0.0312,-0.9688 h -0.0312 z m 4.5625,0 c -0.794,0 -1.4688,0.6578 -1.4688,1.4688 0,0.81095 0.67475,1.4688 1.4688,1.4688 0.79399,0 1.4375,-0.6578 1.4375,-1.4688 0,-0.81095 -0.64351,-1.4688 -1.4375,-1.4688 z m 4.375,0 v 1 l 0.0312,0.96875 h -0.0312 l 0.0312,1 -1,0.0312 0.96875,-1.0312 -0.96875,0.0312 0.9375,-1 -0.9375,0.0312 z m -7.9375,2.9688 0.96875,1.0312 -1,-0.0312 z m 6.9375,0 0.0312,1 -1,0.0312 z m -5.9375,1 0.96875,1.0312 -1,-0.0312 z m 4.9375,0 0.0312,1 -1,0.0312 z"/></g></svg>