<svg xmlns="http://www.w3.org/2000/svg" xmlns:svg="http://www.w3.org/2000/svg" xmlns:xlink="http://www.w3.org/1999/xlink" id="svg2" width="24" height="24" version="1.0"><defs id="defs4"><linearGradient id="ShadowGradient"><stop id="stop3393" offset="0" stop-color="#000" stop-opacity="1"/><stop id="stop3395" offset="1" stop-color="#000" stop-opacity="0"/></linearGradient><linearGradient id="StandardGradient"><stop id="stop3389" offset="0" stop-color="#000" stop-opacity=".863"/><stop id="stop3391" offset="1" stop-color="#000" stop-opacity=".471"/></linearGradient><linearGradient id="linearGradient3381" x1="9.938" x2="9.938" y1="3" y2="19.018" gradientUnits="userSpaceOnUse" xlink:href="#StandardGradient"/><linearGradient id="linearGradient3782" x1="9.75" x2="9.75" y1="5" y2="19.056" gradientTransform="translate(0,-1)" gradientUnits="userSpaceOnUse" xlink:href="#StandardGradient"/><linearGradient id="linearGradient2400" x1="9.75" x2="9.75" y1="5" y2="19.056" gradientTransform="translate(-9,10)" gradientUnits="userSpaceOnUse" xlink:href="#StandardGradient"/><linearGradient id="linearGradient3174" x1="9.75" x2="9.75" y1="5" y2="19.056" gradientTransform="matrix(0.7071068,0.7071068,-0.7071068,0.7071068,0.8856249,4.1536343)" gradientUnits="userSpaceOnUse" xlink:href="#StandardGradient"/><linearGradient id="linearGradient3178" x1="9.75" x2="9.75" y1="5" y2="19.056" gradientTransform="matrix(0,1,-1,0,12.009822,7.0098219)" gradientUnits="userSpaceOnUse" xlink:href="#StandardGradient"/><linearGradient id="linearGradient3182" x1="9.75" x2="9.75" y1="5" y2="19.056" gradientTransform="matrix(-0.7071068,0.7071068,-0.7071068,-0.7071068,17.856188,16.895447)" gradientUnits="userSpaceOnUse" xlink:href="#StandardGradient"/><linearGradient id="linearGradient3186" x1="9.75" x2="9.75" y1="5" y2="19.056" gradientTransform="matrix(-1,0,0,-1,15,28.019644)" gradientUnits="userSpaceOnUse" xlink:href="#StandardGradient"/><linearGradient id="linearGradient3190" x1="9.75" x2="9.75" y1="5" y2="19.056" gradientTransform="matrix(-0.7071068,-0.7071068,0.7071068,-0.7071068,5.1143752,33.866009)" gradientUnits="userSpaceOnUse" xlink:href="#StandardGradient"/><linearGradient id="linearGradient3194" x1="9.75" x2="9.75" y1="5" y2="19.056" gradientTransform="matrix(0,-1,1,0,-6.0098215,31.009821)" gradientUnits="userSpaceOnUse" xlink:href="#StandardGradient"/><linearGradient id="linearGradient3198" x1="9.75" x2="9.75" y1="5" y2="19.056" gradientTransform="matrix(0.7071068,-0.7071068,0.7071068,0.7071068,-11.856186,21.124197)" gradientUnits="userSpaceOnUse" xlink:href="#StandardGradient"/><linearGradient id="linearGradient3224" x1="9.75" x2="9.75" y1="5" y2="19.056" gradientTransform="matrix(0.7071068,0.7071068,-0.7071068,0.7071068,11.292893,-6.263456)" gradientUnits="userSpaceOnUse" xlink:href="#StandardGradient"/><linearGradient id="linearGradient2407" x1="9.75" x2="9.75" y1="5" y2="19.056" gradientTransform="translate(-22,-5)" gradientUnits="userSpaceOnUse" xlink:href="#StandardGradient"/><linearGradient id="linearGradient3228" x1="6.701" x2="6.701" y1="1" y2="15.001" gradientUnits="userSpaceOnUse" xlink:href="#StandardGradient"/><linearGradient id="linearGradient4427" x1="20.759" x2="20.759" y1="1" y2="45.017" gradientTransform="matrix(0.41860332,0,0,0.41860332,0.9535131,1.3721447)" gradientUnits="userSpaceOnUse" xlink:href="#StandardGradient-9"/><linearGradient id="StandardGradient-9"><stop id="stop3389-8" offset="0" stop-color="#000" stop-opacity=".863"/><stop id="stop3391-3" offset="1" stop-color="#000" stop-opacity=".471"/></linearGradient><linearGradient id="linearGradient2891" x1="20.759" x2="20.759" y1="1" y2="45.017" gradientTransform="matrix(0.27906888,0,0,0.27906888,1.3023421,2.5814282)" gradientUnits="userSpaceOnUse" xlink:href="#StandardGradient-9"/><linearGradient id="linearGradient2893" x1="20.759" x2="20.759" y1="1" y2="45.017" gradientTransform="matrix(0.27906888,0,0,0.27906888,1.3023421,1.5814282)" gradientUnits="userSpaceOnUse" xlink:href="#StandardGradient-9"/><linearGradient id="linearGradient3670" x1="20.759" x2="20.759" y1="1" y2="45.017" gradientTransform="matrix(0.27906888,0,0,0.27906888,1.3023421,2.5814282)" gradientUnits="userSpaceOnUse" xlink:href="#StandardGradient-9"/><linearGradient id="linearGradient3674" x1="20.759" x2="20.759" y1="1" y2="45.017" gradientTransform="matrix(0.27906888,0,0,0.27906888,1.3023421,1.5814282)" gradientUnits="userSpaceOnUse" xlink:href="#StandardGradient-9"/><linearGradient id="linearGradient3679" x1="20.759" x2="20.759" y1="1" y2="45.017" gradientTransform="matrix(0.27906888,0,0,0.27906888,-18.697658,1.5814282)" gradientUnits="userSpaceOnUse" xlink:href="#StandardGradient-9"/><clipPath id="clipPath3686" clipPathUnits="userSpaceOnUse"><path id="path3688" fill="#f0f" fill-opacity="1" stroke="none" d="m -20,0 0,16 16,0 0,-16 -16,0 z m 7.15625,2 1.6875,0 c 0.236127,0 0.40625,0.1973338 0.40625,0.4375 l 0,0.84375 c 0.422214,0.1124949 0.818378,0.2853208 1.1875,0.5 l 0.625,-0.59375 c 0.169822,-0.1698 0.426778,-0.1982162 0.59375,-0.03125 l 1.1875,1.1875 c 0.166988,0.166968 0.13857,0.4239286 -0.03125,0.59375 l -0.59375,0.625 c 0.214677,0.3691225 0.387506,0.7652869 0.5,1.1875 l 0.84375,0 C -6.197338,6.75 -6,6.9201224 -6,7.15625 l 0,1.6875 C -6,9.0798786 -6.197348,9.2500183 -6.4375,9.25 l -0.84375,0 c -0.112494,0.4222147 -0.285323,0.81838 -0.5,1.1875 l 0.59375,0.625 c 0.1698,0.169822 0.198217,0.426782 0.03125,0.59375 l -1.1875,1.1875 c -0.166968,0.166988 -0.42393,0.13857 -0.59375,-0.03125 l -0.625,-0.59375 c -0.369122,0.214678 -0.765286,0.387506 -1.1875,0.5 l 0,0.84375 c 0,0.240164 -0.170121,0.4375 -0.40625,0.4375 l -1.6875,0 C -13.07988,14 -13.25,13.802664 -13.25,13.5625 l 0,-0.84375 c -0.422213,-0.112494 -0.818378,-0.285322 -1.1875,-0.5 l -0.625,0.59375 c -0.169822,0.1698 -0.426783,0.198218 -0.59375,0.03125 l -1.1875,-1.1875 c -0.166988,-0.166968 -0.138572,-0.423928 0.03125,-0.59375 l 0.59375,-0.625 c -0.214677,-0.36912 -0.387503,-0.7652854 -0.5,-1.1875 l -0.84375,0 C -17.802664,9.25 -18,9.079878 -18,8.84375 l 0,-1.6875 C -18,6.9201214 -17.802654,6.75 -17.5625,6.75 l 0.84375,0 c 0.112497,-0.422214 0.28532,-0.8183783 0.5,-1.1875 l -0.59375,-0.625 c -0.169801,-0.1698223 -0.198217,-0.426782 -0.03125,-0.59375 l 1.1875,-1.1875 c 0.08348,-0.083478 0.202616,-0.1259428 0.3125,-0.125 0.109883,9.3e-4 0.19634,0.071341 0.28125,0.15625 l 0.625,0.59375 c 0.369122,-0.2146783 0.765286,-0.387506 1.1875,-0.5 l 0,-0.84375 C -13.25,2.1973355 -13.07988,2 -12.84375,2 z M -12,6.1875 c -1.001298,0 -1.8125,0.8112009 -1.8125,1.8125 0,1.0013006 0.811202,1.8125 1.8125,1.8125 1.001299,0 1.8125,-0.8111994 1.8125,-1.8125 0,-1.0012991 -0.811199,-1.8125 -1.8125,-1.8125 z" display="inline"/></clipPath><linearGradient id="linearGradient3987" x1="20.759" x2="20.759" y1="1" y2="45.017" gradientTransform="matrix(0.27906888,0,0,0.27906888,1.3023421,1.5814282)" gradientUnits="userSpaceOnUse" xlink:href="#StandardGradient-9"/><linearGradient id="linearGradient3991" x1="24" x2="20.759" y1="1.5" y2="45.017" gradientTransform="matrix(0.27906888,0,0,0.27906888,1.3023421,1.5814282)" gradientUnits="userSpaceOnUse" xlink:href="#StandardGradient-9"/></defs><metadata id="metadata7"/><g id="layer1" transform="translate(0,8)"><path id="rect3267" fill="#fff" fill-opacity="1" fill-rule="nonzero" stroke="none" stroke-width="1" d="m 10.34302,-7.9999486 c -0.4722596,0 -0.8546521,0.3917591 -0.8546521,0.872088 l 0,1.691856 C 8.643941,-5.2110166 7.8370874,-4.8711783 7.0988438,-4.4418215 L 5.8953576,-5.645305 C 5.7255321,-5.8151223 5.5221048,-5.9050726 5.302337,-5.9069326 5.0825698,-5.9088183 4.8588422,-5.829704 4.691875,-5.662748 l -2.3546446,2.3546417 c -0.3339338,0.333936 -0.3222022,0.8638423 0.017421,1.2034869 l 1.2034855,1.20348187 C 3.1287759,-0.16289429 2.7889377,0.64396171 2.563944,1.4883897 l -1.6918536,0 C 0.39176182,1.4883897 0,1.8707834 0,2.3430405 l 0,3.3139421 c 0,0.4722561 0.39176182,0.8546508 0.87209073,0.8546508 l 1.69185357,0 C 2.788938,7.3560626 3.1287766,8.1629183 3.5581299,8.9011583 l -1.203486,1.2034847 c -0.3396437,0.339645 -0.3513757,0.869546 -0.017421,1.203484 l 2.3546444,2.354645 c 0.3339336,0.333936 0.8638385,0.3222 1.2034828,-0.0174 l 1.2034927,-1.203526 c 0.7382437,0.429356 1.5450973,0.769196 2.3895243,0.994184 l 0,1.691856 c 0,0.480328 0.3823917,0.87209 0.8546514,0.87209 l 3.313942,0 c 0.472258,0 0.854649,-0.391762 0.854649,-0.87209 l 0,-1.691856 c 0.844428,-0.224988 1.651284,-0.564828 2.389528,-0.994184 l 1.203488,1.203488 c 0.33964,0.33964 0.869546,0.351376 1.203482,0.0174 l 2.354642,-2.354647 c 0.333934,-0.333936 0.3222,-0.863838 -0.0174,-1.203483 L 20.441871,8.9011154 c 0.429355,-0.73824 0.769195,-1.545096 0.994183,-2.3895253 l 1.691858,0 C 23.608236,6.5116266 24,6.1292346 24,5.6569773 L 24,2.3430337 C 24,1.8707785 23.608236,1.4883846 23.127912,1.4883846 l -1.691858,0 C 21.211066,0.64395846 20.871226,-0.16289754 20.441871,-0.90114265 l 1.203487,-1.20348365 c 0.33964,-0.3396427 0.351376,-0.8695472 0.0174,-1.2034832 l -2.35464,-2.3546471 c -0.333944,-0.3339324 -0.863844,-0.3222 -1.203488,0.0174 l -1.203491,1.2034871 C 16.162896,-4.871228 15.356042,-5.2110663 14.511614,-5.436056 l 0,-1.6918526 C 14.511614,-7.608241 14.129223,-8 13.656968,-8 l -3.313942,0 z m 1.65697,8.37206403 c 2.002603,0 3.627898,1.62529717 3.627898,3.62789537 0,2.0026011 -1.625301,3.6278943 -3.627898,3.6278943 -2.0025969,0 -3.627895,-1.6252932 -3.627895,-3.6278943 0,-2.0025982 1.6252981,-3.62789537 3.627895,-3.62789537 z" display="block" enable-background="accumulate" opacity="1" overflow="visible" visibility="visible" style="marker:none"/></g></svg>